<svg width="50" height="32" viewBox="0 0 50 32" fill="none" xmlns="http://www.w3.org/2000/svg">
<rect width="50" height="32" rx="6" fill="#F4F6F7"/>
<path fill-rule="evenodd" clip-rule="evenodd" d="M19.5312 24.3791C24.2774 24.3791 28.125 20.6268 28.125 15.9981C28.125 11.3695 24.2774 7.61719 19.5312 7.61719C14.7851 7.61719 10.9375 11.3695 10.9375 15.9981C10.9375 20.6268 14.7851 24.3791 19.5312 24.3791Z" fill="#D8232A"/>
<path fill-rule="evenodd" clip-rule="evenodd" d="M25 22.4634C26.4859 23.6601 28.3912 24.3791 30.4688 24.3791C35.215 24.3791 39.0626 20.6268 39.0626 15.9981C39.0626 11.3695 35.215 7.61719 30.4688 7.61719C28.3912 7.61719 26.4859 8.33617 25 9.53293C26.9086 11.0701 28.1249 13.3956 28.1249 15.9981C28.1249 18.6007 26.9086 20.9261 25 22.4634Z" fill="#ED9F2D"/>
<path fill-rule="evenodd" clip-rule="evenodd" d="M25 9.53125C23.0913 11.0685 21.8748 13.3941 21.8748 15.9968C21.8748 18.5993 23.0911 20.9247 24.9996 22.4619C26.9084 20.9247 28.1249 18.5991 28.1249 15.9964C28.1249 13.3939 26.9086 11.0685 25 9.53125Z" fill="#D8232A"/>
<mask id="mask0" mask-type="alpha" maskUnits="userSpaceOnUse" x="21" y="9" width="8" height="14">
<path fill-rule="evenodd" clip-rule="evenodd" d="M25 9.53125C23.0913 11.0685 21.8748 13.3941 21.8748 15.9968C21.8748 18.5993 23.0911 20.9247 24.9996 22.4619C26.9084 20.9247 28.1249 18.5991 28.1249 15.9964C28.1249 13.3939 26.9086 11.0685 25 9.53125Z" fill="white"/>
</mask>
<g mask="url(#mask0)">
<path fill-rule="evenodd" clip-rule="evenodd" d="M21.0935 9.90234H28.906V10.6642H21.0935V9.90234ZM21.0935 11.4266H28.906V12.1885H21.0935V11.4266ZM28.906 12.9504H21.0935V13.7123H28.906V12.9504ZM21.0935 14.4742H28.906V15.2361H21.0935V14.4742ZM28.906 15.998H21.0935V16.76H28.906V15.998ZM21.0935 17.5219H28.906V18.2838H21.0935V17.5219ZM28.906 19.0457H21.0935V19.8076H28.906V19.0457ZM21.0935 20.5695H28.906V21.3314H21.0935V20.5695ZM28.906 22.0933H21.0935V22.8552H28.906V22.0933Z" fill="#ED9F2D"/>
</g>
</svg>
