<svg width="50" height="33" viewBox="0 0 50 33" fill="none" xmlns="http://www.w3.org/2000/svg">
<rect width="50" height="32" rx="6" fill="#F4F6F7"/>
<path d="M0 6C0 2.68629 2.68629 0 6 0H44C47.3137 0 50 2.68629 50 6V7.61905H0V6Z" fill="#4095DB"/>
<path d="M0 24.3828H50V26.0019C50 29.3156 47.3137 32.0019 44 32.0019H6C2.68629 32.0019 0 29.3156 0 26.0019V24.3828Z" fill="#F4B662"/>
<path fill-rule="evenodd" clip-rule="evenodd" d="M30.6478 12.125C30.2006 11.9475 29.4972 11.7537 28.6209 11.7537C26.3845 11.7537 24.8102 12.9545 24.7972 14.6738C24.7829 15.9454 25.9205 16.6548 26.7782 17.0775C27.6596 17.5108 27.9558 17.788 27.9523 18.1754C27.9462 18.768 27.2487 19.0395 26.5984 19.0395C25.6927 19.0395 25.2116 18.9059 24.4676 18.5755L24.1767 18.4347L23.8604 20.4152C24.3878 20.6616 25.3657 20.8755 26.3805 20.8867C28.7573 20.8867 30.3016 19.7006 30.3197 17.8646C30.3279 16.8561 29.7251 16.0916 28.4197 15.4605C27.6292 15.0503 27.1441 14.7786 27.1496 14.3633C27.1501 13.9955 27.5595 13.6019 28.4455 13.6019C29.1854 13.5899 29.721 13.762 30.1384 13.9418L30.3415 14.0431L30.6478 12.125ZM20.1805 20.7558L21.5956 11.9081H23.8576L22.4426 20.7558H20.1805ZM34.5608 15.1462C34.5608 15.1462 33.8472 17.1106 33.6597 17.6191H35.5376C35.4482 17.1768 35.0142 15.0651 35.0142 15.0651L34.8615 14.302C34.8011 14.4772 34.7169 14.7095 34.6529 14.8862L34.6528 14.8865C34.5957 15.044 34.5546 15.1572 34.5608 15.1462ZM36.4506 11.916H34.7025C34.1603 11.916 33.7544 12.0726 33.5169 12.6495L30.1576 20.7578H32.5335C32.5335 20.7578 32.9211 19.667 33.0091 19.4277C33.1309 19.4277 33.7051 19.4287 34.314 19.4297L34.3144 19.4297C35.0011 19.4309 35.7317 19.4322 35.9064 19.4322C35.9741 19.741 36.1818 20.7578 36.1818 20.7578H38.2813L36.4506 11.916ZM18.283 11.9156L16.069 17.9475L15.8318 16.7214C15.8317 16.7211 15.8317 16.7208 15.8316 16.7205L15.0391 12.656C14.9023 12.0953 14.5049 11.9291 14.0136 11.9095H10.3658L10.3357 12.0928C11.2232 12.322 12.0168 12.6524 12.7123 13.0634L14.7239 20.748L17.1178 20.7466L20.6801 11.9156H18.283Z" fill="#0071CE"/>
<rect width="50" height="32" rx="6" fill="#E5E5E5" fill-opacity="0.01"/>
</svg>
