<svg width="22" height="22" viewBox="0 0 22 22" fill="none" xmlns="http://www.w3.org/2000/svg">
    <g clip-path="url(#clip0)">
        <path d="M4.19375 2.5438C3.7125 2.06255 2.95625 2.06255 2.54375 2.5438C2.13125 3.02505 2.0625 3.71255 2.54375 4.1938L17.8062 19.4563C18.2875 19.9375 18.975 19.9375 19.4562 19.4563C19.9375 18.975 19.9375 18.2875 19.4562 17.8063L4.19375 2.5438Z"
              fill="black"/>
        <path d="M2.54377 17.8063C2.06252 18.2875 2.06252 18.975 2.54377 19.4563C3.02502 19.9375 3.71252 19.9375 4.19377 19.4563L19.4563 4.1938C19.9375 3.71255 19.9375 3.02505 19.4563 2.5438C18.975 2.06255 18.2875 2.06255 17.8063 2.5438L2.54377 17.8063Z"
              fill="black"/>
    </g>
    <defs>
        <clipPath id="clip0">
            <rect x="2.0625" y="2.06323" width="17.875" height="17.875" fill="white"/>
        </clipPath>
    </defs>
</svg>
