<svg width="24" height="24" viewBox="0 0 24 24" fill="none" xmlns="http://www.w3.org/2000/svg">
    <path fill-rule="evenodd" clip-rule="evenodd"
          d="M12 5.75C7.83334 5.75 4.27501 8.34167 2.83334 12C4.27501 15.6583 7.83334 18.25 12 18.25C16.1667 18.25 19.725 15.6583 21.1667 12C19.725 8.34167 16.1667 5.75 12 5.75ZM12 16.1667C9.70001 16.1667 7.83334 14.3 7.83334 12C7.83334 9.7 9.70001 7.83333 12 7.83333C14.3 7.83333 16.1667 9.7 16.1667 12C16.1667 14.3 14.3 16.1667 12 16.1667ZM12 9.5C10.6167 9.5 9.50001 10.6167 9.50001 12C9.50001 13.3833 10.6167 14.5 12 14.5C13.3833 14.5 14.5 13.3833 14.5 12C14.5 10.6167 13.3833 9.5 12 9.5Z"
          fill="white"/>
</svg>
