<svg width="40" height="40" viewBox="0 0 40 40" fill="none" xmlns="http://www.w3.org/2000/svg">
<path d="M40 20C40 8.95514 31.0449 0 20 0C8.95514 0 0 8.95514 0 20C0 29.9817 7.31261 38.2562 16.8753 39.7581V25.7826H11.7958V20H16.8753V15.5927C16.8753 10.5808 19.8622 7.81043 24.4298 7.81043C26.6179 7.81043 28.9073 8.20138 28.9073 8.20138V13.1233H26.3845C23.901 13.1233 23.1247 14.6646 23.1247 16.2481V20H28.6711L27.7851 25.7826H23.1247V39.7581C32.6874 38.259 40 29.9845 40 20Z" fill="#1977F3"/>
<path d="M27.7854 25.7827L28.6713 20.0001H23.125V16.2482C23.125 14.6675 23.8985 13.1234 26.3847 13.1234H28.9076V8.20149C28.9076 8.20149 26.6182 7.81055 24.43 7.81055C19.8625 7.81055 16.8755 10.5781 16.8755 15.5929V20.0001H11.7961V25.7827H16.8755V39.7582C17.8937 39.9186 18.9371 40.0001 20.0003 40.0001C21.0634 40.0001 22.1069 39.9157 23.125 39.7582V25.7827H27.7854Z" fill="#FEFEFE"/>
</svg>
