<svg width="40" height="40" viewBox="0 0 40 40" fill="none" xmlns="http://www.w3.org/2000/svg">
<path d="M39.2087 20.4598C39.2087 19.1003 39.0985 17.7334 38.8633 16.396H19.9993V24.0974H30.8019C30.3536 26.5812 28.9132 28.7785 26.8042 30.1747V35.1718H33.249C37.0335 31.6885 39.2087 26.5445 39.2087 20.4598Z" fill="#4285F4"/>
<path d="M19.9991 40C25.393 40 29.9418 38.229 33.2561 35.172L26.8113 30.1749C25.0182 31.3948 22.7034 32.0855 20.0065 32.0855C14.7889 32.0855 10.365 28.5655 8.77772 23.833H2.1272V28.9844C5.52227 35.7378 12.4373 40 19.9991 40Z" fill="#34A853"/>
<path d="M8.77061 23.8331C7.93286 21.3493 7.93286 18.6597 8.77061 16.1758V11.0244H2.12743C-0.709144 16.6755 -0.709144 23.3334 2.12743 28.9845L8.77061 23.8331Z" fill="#FBBC04"/>
<path d="M19.9991 7.91584C22.8504 7.87175 25.6061 8.94465 27.6711 10.9141L33.381 5.20419C29.7655 1.80911 24.9668 -0.0574414 19.9991 0.00134773C12.4373 0.00134773 5.52227 4.26356 2.1272 11.0243L8.77037 16.1757C10.3503 11.4358 14.7816 7.91584 19.9991 7.91584Z" fill="#EA4335"/>
</svg>
