<svg width="992" height="245" viewBox="0 0 992 245" fill="none" xmlns="http://www.w3.org/2000/svg">
    <mask id="mask0" mask-type="alpha" maskUnits="userSpaceOnUse" x="0" y="0" width="992" height="245">
        <path d="M0 226C49.5 211 103.235 210.921 144 222C185.333 232.82 226.667 245.848 268 241.919C309.333 238.267 370.5 216.865 412 216.865C499.855 216.865 551.651 260.679 640 236.668C681.333 225.848 722.667 210.686 764 218.267C805.333 225.848 836.667 244.793 878 245C925.545 244.762 955.026 232.475 992 206.213V0H971.333C950.667 0 909.333 0 868 0C826.667 0 785.333 0 744 0C702.667 0 661.333 0 620 0C578.667 0 537.333 0 496 0C454.667 0 413.333 0 372 0C330.667 0 289.333 0 248 0C206.667 0 165.333 0 124 0C82.6667 0 41.3333 0 20.6667 0H0V226Z"
              fill="#0099FF"/>
    </mask>
    <g mask="url(#mask0)">
        <path d="M992 -90H0V572H992V-90Z" fill="url(#paint0_linear)"/>
        <path d="M992 152.242C992 152.242 880.235 42.6826 791.616 227.482C702.997 412.281 589.777 569.624 431.851 436.041C136.896 186.562 0 385.881 0 385.881V572H992V152.242Z"
              fill="url(#paint1_linear)"/>
        <path d="M444.835 -90C444.835 -90 291.338 133.309 628.767 272.052C966.197 410.794 914.59 572 914.59 572H992V-90H444.835Z"
              fill="url(#paint2_linear)"/>
        <path d="M0 -11.6099C0 -11.6099 199.987 -117.141 319.027 82.7986C438.067 282.738 672.576 246.061 789.897 118.814C917.798 -19.9518 992 53.2711 992 53.2711V393.566C992 393.566 820.45 185.681 603.797 353.842C303.552 586.885 0 410.779 0 410.779V-11.6099Z"
              fill="url(#paint3_linear)"/>
        <path d="M778.075 -90C778.075 -90 863.088 198.473 476.232 147.288C89.3762 96.1034 0 345 0 345V-90H778.075Z"
              fill="url(#paint4_linear)"/>
    </g>
    <defs>
        <linearGradient id="paint0_linear" x1="495.825" y1="-144.284" x2="495.825" y2="672.882"
                        gradientUnits="userSpaceOnUse">
            <stop stop-color="#E94546"/>
            <stop offset="0.1586" stop-color="#CE2241"/>
            <stop offset="0.3256" stop-color="#B5023C"/>
            <stop offset="0.3558" stop-color="#AD023C"/>
            <stop offset="0.5743" stop-color="#750240"/>
            <stop offset="0.7623" stop-color="#4C0342"/>
            <stop offset="0.9103" stop-color="#330343"/>
            <stop offset="1" stop-color="#2A0344"/>
        </linearGradient>
        <linearGradient id="paint1_linear" x1="477.136" y1="267.721" x2="568.046" y2="724.508"
                        gradientUnits="userSpaceOnUse">
            <stop stop-color="#E94546"/>
            <stop offset="0.2214" stop-color="#D72E43" stop-opacity="0.7786"/>
            <stop offset="0.4882" stop-color="#C7193F" stop-opacity="0.5118"/>
            <stop offset="0.7503" stop-color="#BD0C3E" stop-opacity="0.2497"/>
            <stop offset="1" stop-color="#BA083D" stop-opacity="0"/>
        </linearGradient>
        <linearGradient id="paint2_linear" x1="697.526" y1="-37.8225" x2="847.012" y2="712.845"
                        gradientUnits="userSpaceOnUse">
            <stop stop-color="#E94546"/>
            <stop offset="0.2214" stop-color="#D72E43" stop-opacity="0.7786"/>
            <stop offset="0.4882" stop-color="#C7193F" stop-opacity="0.5118"/>
            <stop offset="0.7503" stop-color="#BD0C3E" stop-opacity="0.2497"/>
            <stop offset="1" stop-color="#BA083D" stop-opacity="0"/>
        </linearGradient>
        <linearGradient id="paint3_linear" x1="448.983" y1="-19.6275" x2="583.315" y2="697.809"
                        gradientUnits="userSpaceOnUse">
            <stop stop-color="#E94546"/>
            <stop offset="0.1586" stop-color="#CE2241"/>
            <stop offset="0.3256" stop-color="#B5023C"/>
            <stop offset="0.3558" stop-color="#AD023C" stop-opacity="0.9553"/>
            <stop offset="0.5743" stop-color="#750240" stop-opacity="0.6312"/>
            <stop offset="0.7623" stop-color="#4C0342" stop-opacity="0.3525"/>
            <stop offset="0.9103" stop-color="#330343" stop-opacity="0.1331"/>
            <stop offset="1" stop-color="#2A0344" stop-opacity="0"/>
        </linearGradient>
        <linearGradient id="paint4_linear" x1="410.133" y1="273.302" x2="349.949" y2="-159.104"
                        gradientUnits="userSpaceOnUse">
            <stop stop-color="#E94546"/>
            <stop offset="0.2214" stop-color="#D72E43" stop-opacity="0.7786"/>
            <stop offset="0.4882" stop-color="#C7193F" stop-opacity="0.5118"/>
            <stop offset="0.7503" stop-color="#BD0C3E" stop-opacity="0.2497"/>
            <stop offset="1" stop-color="#BA083D" stop-opacity="0"/>
        </linearGradient>
    </defs>
</svg>
