<svg width="992" height="896" viewBox="0 0 992 896" fill="none" xmlns="http://www.w3.org/2000/svg">
    <mask id="mask0" mask-type="alpha" maskUnits="userSpaceOnUse" x="0" y="0" width="992" height="896">
        <rect width="992" height="896" fill="white"/>
    </mask>
    <g mask="url(#mask0)">
        <path d="M1167.65 0H-175V896H1167.65V0Z" fill="url(#paint0_linear)"/>
        <path d="M1167.65 327.868C1167.65 327.868 1016.38 179.583 896.432 429.703C776.489 679.824 623.248 892.784 409.499 711.983C10.2852 374.319 -175 644.093 -175 644.093V896H1167.65V327.868Z"
              fill="url(#paint1_linear)"/>
        <path d="M427.073 0C427.073 0 219.319 302.244 676.02 490.028C1132.72 677.812 1062.87 896 1062.87 896H1167.65V0H427.073Z"
              fill="url(#paint2_linear)"/>
        <path d="M-175 106.099C-175 106.099 95.6775 -36.7346 256.795 233.878C417.913 504.492 735.314 454.849 894.105 282.625C1067.22 94.8085 1167.65 193.914 1167.65 193.914V654.494C1167.65 654.494 935.458 373.128 642.224 600.729C235.85 916.146 -175 677.791 -175 677.791V106.099Z"
              fill="url(#paint3_linear)"/>
        <path d="M878.105 0C878.105 0 993.168 390.441 469.568 321.164C-54.0317 251.886 -175 588.761 -175 588.761V0H878.105Z"
              fill="url(#paint4_linear)"/>
    </g>
    <defs>
        <linearGradient id="paint0_linear" x1="496.087" y1="-73.472" x2="496.087" y2="1032.54"
                        gradientUnits="userSpaceOnUse">
            <stop stop-color="#E94546"/>
            <stop offset="0.1586" stop-color="#CE2241"/>
            <stop offset="0.3256" stop-color="#B5023C"/>
            <stop offset="0.3558" stop-color="#AD023C"/>
            <stop offset="0.5743" stop-color="#750240"/>
            <stop offset="0.7623" stop-color="#4C0342"/>
            <stop offset="0.9103" stop-color="#330343"/>
            <stop offset="1" stop-color="#2A0344"/>
        </linearGradient>
        <linearGradient id="paint1_linear" x1="470.792" y1="484.166" x2="593.835" y2="1102.42"
                        gradientUnits="userSpaceOnUse">
            <stop stop-color="#E94546"/>
            <stop offset="0.2214" stop-color="#D72E43" stop-opacity="0.7786"/>
            <stop offset="0.4882" stop-color="#C7193F" stop-opacity="0.5118"/>
            <stop offset="0.7503" stop-color="#BD0C3E" stop-opacity="0.2497"/>
            <stop offset="1" stop-color="#BA083D" stop-opacity="0"/>
        </linearGradient>
        <linearGradient id="paint2_linear" x1="769.084" y1="70.6209" x2="971.409" y2="1086.63"
                        gradientUnits="userSpaceOnUse">
            <stop stop-color="#E94546"/>
            <stop offset="0.2214" stop-color="#D72E43" stop-opacity="0.7786"/>
            <stop offset="0.4882" stop-color="#C7193F" stop-opacity="0.5118"/>
            <stop offset="0.7503" stop-color="#BD0C3E" stop-opacity="0.2497"/>
            <stop offset="1" stop-color="#BA083D" stop-opacity="0"/>
        </linearGradient>
        <linearGradient id="paint3_linear" x1="432.687" y1="95.2474" x2="614.502" y2="1066.28"
                        gradientUnits="userSpaceOnUse">
            <stop stop-color="#E94546"/>
            <stop offset="0.1586" stop-color="#CE2241"/>
            <stop offset="0.3256" stop-color="#B5023C"/>
            <stop offset="0.3558" stop-color="#AD023C" stop-opacity="0.9553"/>
            <stop offset="0.5743" stop-color="#750240" stop-opacity="0.6312"/>
            <stop offset="0.7623" stop-color="#4C0342" stop-opacity="0.3525"/>
            <stop offset="0.9103" stop-color="#330343" stop-opacity="0.1331"/>
            <stop offset="1" stop-color="#2A0344" stop-opacity="0"/>
        </linearGradient>
        <linearGradient id="paint4_linear" x1="380.105" y1="491.72" x2="298.647" y2="-93.5307"
                        gradientUnits="userSpaceOnUse">
            <stop stop-color="#E94546"/>
            <stop offset="0.2214" stop-color="#D72E43" stop-opacity="0.7786"/>
            <stop offset="0.4882" stop-color="#C7193F" stop-opacity="0.5118"/>
            <stop offset="0.7503" stop-color="#BD0C3E" stop-opacity="0.2497"/>
            <stop offset="1" stop-color="#BA083D" stop-opacity="0"/>
        </linearGradient>
    </defs>
</svg>
