<svg width="48" height="48" viewBox="0 0 48 48" fill="none" xmlns="http://www.w3.org/2000/svg">
<path d="M43.1568 31.9386L46.4406 28.6545C48.5195 26.5759 48.5199 23.1932 46.4409 21.1135C45.803 20.4759 45.0369 20.028 44.2184 19.7797C44.8878 18.8704 45.25 17.7758 45.25 16.6256C45.25 15.2014 44.6952 13.8621 43.6878 12.8551C42.6811 11.848 41.3418 11.2932 39.9173 11.2932C39.8576 11.2932 39.7979 11.2943 39.7382 11.2961C39.7847 9.87265 39.2661 8.43345 38.1818 7.34873C37.0975 6.26475 35.6564 5.74547 34.2352 5.79271C34.237 5.73338 34.2381 5.67332 34.2381 5.61363C34.2381 4.18908 33.6833 2.85021 32.6762 1.84314C30.5976 -0.235472 27.2149 -0.235838 25.1352 1.84314L24 2.97839L22.8651 1.8435C21.858 0.836058 20.5188 0.28125 19.0942 0.28125C17.67 0.28125 16.3312 0.836058 15.3241 1.84277C14.2394 2.92748 13.7219 4.36705 13.7691 5.79161C13.7091 5.78941 13.649 5.78722 13.589 5.78722C12.1648 5.78722 10.8256 6.34166 9.81774 7.34873C8.7334 8.43382 8.21594 9.87339 8.26318 11.2976C8.20276 11.2954 8.1427 11.2932 8.08228 11.2932C6.65808 11.2932 5.31886 11.848 4.31251 12.8547C3.30507 13.8618 2.75026 15.201 2.75026 16.6256C2.75026 17.7755 3.11207 18.8701 3.78187 19.779C2.95131 20.0295 2.18996 20.4829 1.55898 21.1135C-0.514868 23.188 -0.519629 26.5601 1.54506 28.6398C1.55019 28.6453 1.55532 28.6504 1.56044 28.6559L4.84901 31.9438C4.8534 31.9485 4.85816 31.9533 4.86292 31.958C5.06031 32.1558 5.27125 32.3349 5.49244 32.4971L4.51979 33.4698C3.57387 34.4157 3.09193 35.7044 3.16334 37.0985C3.23146 38.437 3.80751 39.7122 4.78456 40.6892L10.3469 46.2519C11.3789 47.2836 12.7339 47.7995 14.0892 47.7995C15.4446 47.7995 16.7999 47.2836 17.8315 46.2519L20.417 43.6661C21.5965 43.9192 22.7981 44.0477 24.0007 44.0477C25.2022 44.0477 26.4041 43.9199 27.5833 43.6669L30.168 46.2519C31.2 47.2836 32.555 47.7995 33.9103 47.7995C35.2653 47.7992 36.621 47.2836 37.6526 46.2519L43.2154 40.6892C45.2786 38.626 45.513 35.503 43.7376 33.7272L42.5529 32.5425L43.1374 31.9577C43.1439 31.9514 43.1502 31.9452 43.1568 31.9386ZM17.3591 3.87816C17.8227 3.41454 18.4391 3.15929 19.0946 3.15929C19.7501 3.15929 20.3664 3.41454 20.83 3.87816L25.2344 8.28257C26.1914 9.23984 26.1914 10.797 25.2344 11.7539C24.7708 12.2175 24.1545 12.4727 23.4993 12.4727H23.499C22.8435 12.4724 22.2275 12.2175 21.7639 11.7539C21.7631 11.7531 21.7624 11.7524 21.762 11.752L17.3602 7.3502C17.3565 7.34654 17.3532 7.34288 17.3492 7.33958C16.4022 6.38121 16.4055 4.83141 17.3591 3.87816ZM11.8465 12.8485C10.8962 11.8908 10.8984 10.3385 11.8528 9.38413C12.3168 8.92051 12.9335 8.66526 13.589 8.66526C14.2438 8.66526 14.8594 8.92014 15.323 9.3834C15.3233 9.3834 15.3237 9.38376 15.3237 9.38413C15.3255 9.38559 15.327 9.38706 15.3285 9.38852L19.7278 13.7878C19.7303 13.7907 19.7336 13.7937 19.7365 13.7966L20.8297 14.8897C21.2933 15.3534 21.5489 15.9697 21.5489 16.6256C21.5489 17.2811 21.2937 17.8974 20.83 18.3607C20.3664 18.8243 19.7501 19.0795 19.0946 19.0795C18.4391 19.0795 17.8227 18.8243 17.3595 18.3607C17.3536 18.3548 17.3478 18.3493 17.3419 18.3438L16.2627 17.2642C16.2612 17.2628 16.2597 17.2613 16.2583 17.2595L11.8531 12.8551L11.8528 12.8547C11.8506 12.8525 11.8484 12.8503 11.8465 12.8485ZM6.34791 14.8897C6.81116 14.4265 7.42713 14.1712 8.08264 14.1712C8.73816 14.1712 9.35449 14.4265 9.81811 14.8901L14.2276 19.2996C15.1798 20.2569 15.178 21.8104 14.2232 22.7658C13.7596 23.2291 13.1429 23.4843 12.4874 23.4843C11.8319 23.4843 11.2156 23.2291 10.7523 22.7654C10.7465 22.7599 10.741 22.7541 10.7351 22.7486L6.36145 18.3749C6.35669 18.3702 6.35193 18.3651 6.34754 18.3607C5.88392 17.897 5.62867 17.2811 5.62867 16.6256C5.6283 15.97 5.88392 15.3537 6.34791 14.8897ZM3.60902 26.6344C3.60353 26.6286 3.59804 26.6231 3.59254 26.6176C2.63747 25.6607 2.6382 24.105 3.59437 23.1489C4.05799 22.6852 4.67433 22.43 5.32984 22.43C5.98536 22.43 6.60206 22.6852 7.06568 23.1492L10.3689 26.4521C11.3258 27.409 11.3258 28.9661 10.3693 29.923C9.90563 30.3866 9.2893 30.6419 8.63415 30.6419H8.63379C8.5133 30.6419 8.39429 30.6331 8.2771 30.6162C8.26831 30.6144 8.25952 30.6133 8.25073 30.6119C7.74536 30.5331 7.27881 30.2995 6.90857 29.9336C6.90491 29.9296 6.90088 29.9259 6.89722 29.9219L3.60902 26.6344ZM20.339 40.6907C20.3265 40.6874 20.3144 40.6859 20.3023 40.683C20.2734 40.676 20.2448 40.6694 20.2159 40.6643C20.1947 40.6607 20.1734 40.6581 20.1518 40.6552C20.128 40.6522 20.1042 40.6493 20.08 40.6475C20.0548 40.6453 20.0295 40.6442 20.0042 40.6438C19.9837 40.6431 19.9636 40.6427 19.9431 40.6431C19.916 40.6434 19.8892 40.6449 19.8625 40.6471C19.8431 40.6486 19.8237 40.65 19.8043 40.6522C19.7779 40.6552 19.7519 40.6592 19.7259 40.6636C19.7054 40.6669 19.6853 40.6709 19.6648 40.6753C19.641 40.6804 19.6175 40.6859 19.5941 40.6925C19.5717 40.6984 19.5494 40.705 19.5271 40.7119C19.5062 40.7189 19.4861 40.7262 19.4655 40.7335C19.4417 40.7427 19.4179 40.7518 19.3949 40.7621C19.3762 40.7701 19.3575 40.7789 19.3392 40.7877C19.3158 40.7991 19.2927 40.8108 19.27 40.8236C19.2513 40.8339 19.233 40.8449 19.2147 40.8562C19.1942 40.869 19.1733 40.8818 19.1532 40.8958C19.1327 40.91 19.1125 40.9251 19.0927 40.9404C19.0763 40.9529 19.0602 40.9653 19.044 40.9785C19.0206 40.9983 18.9983 41.0188 18.9763 41.04C18.9679 41.0481 18.9587 41.0551 18.9503 41.0635L15.7969 44.2169C14.8553 45.1584 13.3238 45.1584 12.3823 44.2169L6.81995 38.6546C6.34754 38.1821 6.06959 37.5775 6.03773 36.9517C6.00879 36.3815 6.19227 35.8677 6.55518 35.5051L8.54224 33.5177C8.57263 33.5181 8.60303 33.5199 8.63379 33.5199C8.63379 33.5199 8.63379 33.5199 8.63415 33.5199C10.058 33.5199 11.3968 32.9651 12.4043 31.958C13.9457 30.4163 14.343 28.1582 13.5981 26.2459C14.5986 26.035 15.5182 25.5406 16.2586 24.8008C17.1042 23.9545 17.6059 22.8921 17.763 21.7899C18.193 21.9001 18.6394 21.9576 19.0946 21.9576C19.0946 21.9576 19.0946 21.9576 19.0949 21.9576C20.5188 21.9576 21.8576 21.4031 22.8651 20.3961C23.8721 19.389 24.427 18.0498 24.427 16.6256C24.427 16.1711 24.3698 15.7254 24.2603 15.2962C25.3956 15.1351 26.4444 14.6143 27.2695 13.7885C29.3484 11.7099 29.3484 8.32725 27.2698 6.24791L26.035 5.01305L27.1702 3.87816C28.1275 2.92126 29.6846 2.92126 30.6412 3.8778C31.1048 4.34142 31.36 4.95775 31.36 5.61327C31.36 6.26878 31.1048 6.88511 30.6412 7.34873C30.3603 7.62962 30.2197 7.99802 30.2197 8.36643C30.2197 8.73447 30.3599 9.10288 30.6412 9.38376C31.2033 9.9459 32.1141 9.9459 32.6762 9.38376C33.6327 8.42722 35.1899 8.42686 36.1471 9.38376C37.104 10.341 37.1037 11.8982 36.1468 12.8551C35.8659 13.1359 35.7253 13.5044 35.7253 13.8724C35.7253 14.2408 35.8655 14.6088 36.1468 14.8897C36.7089 15.4519 37.6197 15.4519 38.1818 14.8901C38.6454 14.4265 39.2621 14.1712 39.9176 14.1709C40.5732 14.1709 41.1895 14.4261 41.6527 14.8897C42.1167 15.3537 42.372 15.97 42.372 16.6256C42.372 17.2723 42.1233 17.8809 41.6714 18.342C41.6648 18.3486 41.6582 18.3548 41.652 18.3614L39.5884 20.4254C39.0746 20.9391 39.0244 21.7554 39.4716 22.3282L39.5456 22.423C39.9916 22.9947 40.7936 23.1448 41.4162 22.7739C42.3811 22.1989 43.6105 22.3531 44.4059 23.1481C45.3628 24.1054 45.3628 25.6625 44.4059 26.6194L41.1031 29.9219C41.0968 29.9285 41.0902 29.9351 41.084 29.9417L33.9946 37.0311C30.4376 40.5881 25.2052 41.9904 20.339 40.6907ZM41.7029 35.7622C42.3339 36.3936 42.09 37.7453 41.1807 38.6546L35.618 44.2169C34.6764 45.1584 33.1449 45.1584 32.2034 44.2169L30.6727 42.6862C32.6623 41.8369 34.4845 40.6112 36.0296 39.0662L40.5179 34.5775L41.7029 35.7622Z" fill="#3366FF"/>
</svg>
