<svg width="48" height="48" viewBox="0 0 48 48" fill="none" xmlns="http://www.w3.org/2000/svg">
<g clip-path="url(#clip0)">
<path d="M48.0001 2.75H27.7501C26.2736 2.75 24.941 3.37484 24.0001 4.37281C23.0592 3.37484 21.7267 2.75 20.2501 2.75H0.00012207V36.5625H10.7788C12.9962 41.6692 18.0875 45.2501 24.0001 45.2501C29.9127 45.2501 35.004 41.6692 37.2214 36.5625H48.0001V2.75ZM45.1876 33.75H38.1117C38.3049 32.811 38.4064 31.839 38.4064 30.8438C38.4064 29.7153 38.2756 28.6169 38.0291 27.5625H41.297V24.75H37.052C36.5112 23.5963 35.8219 22.5256 35.0086 21.5625H41.297V18.75H31.8196C29.9373 17.5288 27.7535 16.7348 25.4064 16.5063V7.90625C25.4064 6.61391 26.4578 5.5625 27.7501 5.5625H45.1876V33.75ZM24.0001 42.4376C17.6073 42.4376 12.4063 37.2366 12.4063 30.8438C12.4063 24.451 17.6073 19.25 24.0001 19.25C30.3929 19.25 35.5939 24.451 35.5939 30.8438C35.5939 37.2366 30.3929 42.4376 24.0001 42.4376ZM2.81262 5.5625H20.2501C21.5425 5.5625 22.5939 6.61391 22.5939 7.90625V16.5062C20.2467 16.7347 18.0629 17.5287 16.1805 18.7499H6.70325V21.5624H12.9915C12.1783 22.5255 11.489 23.5962 10.9482 24.7499H6.70325V27.5624H9.97118C9.72462 28.6168 9.59384 29.7152 9.59384 30.8437C9.59384 31.8389 9.69537 32.8109 9.8885 33.7499H2.81262V5.5625Z" fill="#3366FF"/>
<path d="M6.70325 12.75H18.7032V15.5625H6.70325V12.75Z" fill="#3366FF"/>
<path d="M29.297 12.75H41.297V15.5625H29.297V12.75Z" fill="#3366FF"/>
<path d="M30.7033 32.0616V29.626L20.9626 24.0022L18.8533 25.22V36.4675L20.9626 37.6853L30.7033 32.0616ZM21.6658 27.6557L27.1876 30.8438L21.6658 34.0319V27.6557Z" fill="#3366FF"/>
</g>
<defs>
<clipPath id="clip0">
<rect x="0.00012207" width="48" height="48" fill="white"/>
</clipPath>
</defs>
</svg>
