<svg width="48" height="48" viewBox="0 0 48 48" fill="none" xmlns="http://www.w3.org/2000/svg">
<g clip-path="url(#clip0)">
<path d="M46.4346 38.0869H36.2524C35.6063 36.2651 33.8665 34.9565 31.826 34.9565C29.7856 34.9565 28.0458 36.2652 27.3996 38.0869H1.56513C0.700659 38.0869 -0.00012207 38.7877 -0.00012207 39.6522C-0.00012207 40.5166 0.700659 41.2175 1.56513 41.2175H27.3995C28.0457 43.0393 29.7855 44.3479 31.8259 44.3479C33.8664 44.3479 35.6062 43.0392 36.2523 41.2175H46.4346C47.299 41.2175 47.9999 40.5167 47.9999 39.6522C47.9999 38.7877 47.2991 38.0869 46.4346 38.0869ZM31.8259 41.2174C30.9629 41.2174 30.2607 40.5152 30.2607 39.6521C30.2607 38.789 30.9629 38.0869 31.8259 38.0869C32.689 38.0869 33.3912 38.789 33.3912 39.6521C33.3912 40.5152 32.689 41.2174 31.8259 41.2174Z" fill="#3366FF"/>
<path d="M31.1289 16.4369L21.7376 10.176C20.6984 9.48292 19.3042 10.2313 19.3042 11.4783V24C19.3042 25.2562 20.7071 25.9896 21.7376 25.3023L31.1289 19.0414C32.0553 18.4241 32.059 17.0567 31.1289 16.4369ZM22.4346 21.0755V14.4029L27.4389 17.7391L22.4346 21.0755Z" fill="#3366FF"/>
<path d="M43.3042 3.65222H4.69553C2.10635 3.65222 -0.00012207 5.75869 -0.00012207 8.34788V27.1305C-0.00012207 29.7197 2.10635 31.8262 4.69553 31.8262H43.3042C45.8934 31.8262 47.9999 29.7197 47.9999 27.1305V8.34788C47.9999 5.75869 45.8934 3.65222 43.3042 3.65222ZM44.8695 27.1304C44.8695 27.9935 44.1673 28.6957 43.3042 28.6957H4.69553C3.83247 28.6957 3.13028 27.9935 3.13028 27.1304V8.34788C3.13028 7.48482 3.83247 6.78263 4.69553 6.78263H43.3042C44.1673 6.78263 44.8695 7.48482 44.8695 8.34788V27.1304Z" fill="#3366FF"/>
</g>
<defs>
<clipPath id="clip0">
<rect x="-0.00012207" width="48" height="48" fill="white"/>
</clipPath>
</defs>
</svg>
