<svg width="48" height="48" viewBox="0 0 48 48" fill="none" xmlns="http://www.w3.org/2000/svg">
<path d="M40.9688 25.1393H36.2702C35.6307 25.1393 35.0116 25.2267 34.4224 25.3874C33.2601 23.1025 30.8871 21.5326 28.1527 21.5326H19.8473C17.1129 21.5326 14.7399 23.1025 13.5776 25.3874C12.9884 25.2267 12.3693 25.1393 11.7298 25.1393H7.03125C3.15422 25.1393 0 28.2936 0 32.1706V39.6817C0 42.0079 1.89253 43.9004 4.21875 43.9004H43.7812C46.1075 43.9004 48 42.0079 48 39.6817V32.1706C48 28.2936 44.8458 25.1393 40.9688 25.1393ZM12.8161 28.564V41.088H4.21875C3.44334 41.088 2.8125 40.4572 2.8125 39.6817V32.1707C2.8125 29.8445 4.70503 27.9519 7.03125 27.9519H11.7298C12.1116 27.9519 12.4812 28.0038 12.8332 28.0993C12.823 28.2532 12.8161 28.4078 12.8161 28.564ZM32.3714 41.088H15.6286V28.5639C15.6286 26.2377 17.5211 24.3452 19.8473 24.3452H28.1527C30.4789 24.3452 32.3714 26.2377 32.3714 28.5639V41.088ZM45.1875 39.6817C45.1875 40.4572 44.5567 41.088 43.7812 41.088H35.1839V28.5639C35.1839 28.4077 35.177 28.253 35.1668 28.0992C35.5188 28.0038 35.8884 27.9518 36.2702 27.9518H40.9688C43.295 27.9518 45.1875 29.8444 45.1875 32.1706V39.6817Z" fill="#3366FF"/>
<path d="M9.38063 11.8597C5.93541 11.8597 3.13257 14.6626 3.13257 18.1078C3.13247 21.553 5.93541 24.3559 9.38063 24.3559C12.8258 24.3559 15.6287 21.553 15.6287 18.1078C15.6287 14.6626 12.8258 11.8597 9.38063 11.8597ZM9.38054 21.5434C7.48613 21.5434 5.94497 20.0022 5.94497 18.1078C5.94497 16.2134 7.48613 14.6722 9.38054 14.6722C11.2749 14.6722 12.8161 16.2134 12.8161 18.1078C12.8161 20.0022 11.2749 21.5434 9.38054 21.5434Z" fill="#3366FF"/>
<path d="M24 4.09961C19.3972 4.09961 15.6526 7.84417 15.6526 12.4469C15.6526 17.0497 19.3972 20.7942 24 20.7942C28.6027 20.7942 32.3473 17.0497 32.3473 12.4469C32.3473 7.84426 28.6027 4.09961 24 4.09961ZM24 17.9817C20.948 17.9817 18.4651 15.4989 18.4651 12.4469C18.4651 9.39508 20.948 6.91211 24 6.91211C27.0519 6.91211 29.5348 9.39498 29.5348 12.4469C29.5348 15.4989 27.0519 17.9817 24 17.9817Z" fill="#3366FF"/>
<path d="M38.6194 11.8597C35.1743 11.8597 32.3713 14.6626 32.3713 18.1078C32.3714 21.553 35.1743 24.3559 38.6194 24.3559C42.0646 24.3559 44.8675 21.553 44.8675 18.1078C44.8675 14.6626 42.0646 11.8597 38.6194 11.8597ZM38.6194 21.5434C36.7251 21.5434 35.1838 20.0022 35.1838 18.1078C35.1839 16.2134 36.7251 14.6722 38.6194 14.6722C40.5138 14.6722 42.055 16.2134 42.055 18.1078C42.055 20.0022 40.5138 21.5434 38.6194 21.5434Z" fill="#3366FF"/>
</svg>
