<svg width="48" height="48" viewBox="0 0 48 48" fill="none" xmlns="http://www.w3.org/2000/svg">
<g clip-path="url(#clip0)">
<path d="M0 3.67944V38.6134H14.7976L13.8459 41.509H9.58339V44.3206H38.4166V41.509H34.1541L33.2025 38.6134H48V3.67944H0ZM31.1947 41.509H16.8055L17.7571 38.6134H30.243L31.1947 41.509ZM45.1884 35.8018H2.81159V32.9063H45.1884V35.8018ZM29.6131 19.436C27.5909 19.436 25.9456 17.7908 25.9456 15.7686C25.9456 13.7464 27.5909 12.1012 29.6131 12.1012C31.6352 12.1012 33.2805 13.7464 33.2805 15.7686C33.2805 17.7908 31.6352 19.436 29.6131 19.436ZM29.613 22.2475C33.2953 22.2475 37.0109 24.1995 37.0109 28.5603V30.0946H22.2152V28.5603C22.2152 24.1995 25.9307 22.2475 29.613 22.2475ZM39.8224 30.0946V28.5603C39.8224 25.8498 38.7262 23.4473 36.7356 21.7958C36.0018 21.1869 35.1552 20.6896 34.2286 20.3095C35.3799 19.1394 36.092 17.5359 36.092 15.7685C36.092 12.196 33.1855 9.2895 29.613 9.2895C26.0405 9.2895 23.1339 12.196 23.1339 15.7685C23.1339 17.5358 23.8459 19.1393 24.9973 20.3094C24.0706 20.6896 23.2239 21.1868 22.4901 21.7958C20.4997 23.4473 19.4035 25.8497 19.4035 28.5603V30.0946H2.81159V6.49103H45.1884V30.0947H39.8224V30.0946Z" fill="#3366FF"/>
<path d="M39.5535 9.30273H42.3731V12.1143H39.5535V9.30273Z" fill="#3366FF"/>
<path d="M5.62317 22.0915H18.412V9.30273H5.62317V22.0915ZM8.43476 12.1143H15.6004V19.2799H8.43476V12.1143Z" fill="#3366FF"/>
</g>
<defs>
<clipPath id="clip0">
<rect width="48" height="48" fill="white"/>
</clipPath>
</defs>
</svg>
