<svg width="48" height="48" viewBox="0 0 48 48" fill="none" xmlns="http://www.w3.org/2000/svg">
<g clip-path="url(#clip0)">
<path d="M46.4994 26.4014C44.7738 24.9438 42.2195 25.1114 40.6934 26.7498L36.5604 31.1867C36.0611 29.5814 34.6267 28.3852 32.8975 28.2355C33.631 27.7227 34.3262 27.1434 34.9753 26.5001C37.9331 23.5691 39.5621 19.6847 39.5621 15.5625C39.5621 7.03788 32.5545 0.000244141 23.9998 0.000244141C15.4676 0.000244141 8.53132 7.01838 8.53132 15.5625C8.53132 19.4216 9.95839 23.0818 12.5068 25.9058C11.8245 26.2519 11.1745 26.6822 10.5722 27.1974C9.80773 26.1149 8.54792 25.4061 7.12507 25.4061H1.40631C0.629687 25.4061 6.10352e-05 26.0357 6.10352e-05 26.8123V46.5933C6.10352e-05 47.37 0.629687 47.9996 1.40631 47.9996H7.12498C8.96604 47.9996 10.5344 46.8137 11.1089 45.1659C11.1854 45.1787 11.2635 45.1871 11.3436 45.1871H32.5308C35.6125 45.1871 38.5565 43.7151 40.4098 41.2441L47.1568 32.1545C48.497 30.3682 48.2119 27.8481 46.4994 26.4014ZM8.53123 43.7809C8.53123 44.5563 7.90038 45.1872 7.12498 45.1872H2.81257V28.2187H7.12498C7.90038 28.2187 8.53123 28.8495 8.53123 29.6249V43.7809ZM11.3436 15.5626C11.3436 8.53226 17.0211 2.81275 23.9997 2.81275C31.03 2.81275 36.7495 8.53226 36.7495 15.5626C36.7495 22.2754 31.4572 27.7833 24.7969 28.1933C24.5517 28.1464 24.3218 28.0352 24.1321 27.8681L23.4716 27.2869C21.2318 25.3159 18.3047 24.5378 15.5205 24.9483C12.8587 22.5439 11.3436 19.1581 11.3436 15.5626ZM44.9028 30.4725L38.1558 39.5624C36.835 41.3235 34.7322 42.3749 32.5309 42.3749H11.3436V30.2606L12.3236 29.3982C14.9717 27.0679 18.9656 27.0679 21.6135 29.3982C22.0916 29.819 23.3882 31.0311 23.9997 31.0311C25.1896 31.0311 31.7889 31.0311 32.5309 31.0311C33.3063 31.0311 33.9371 31.6619 33.9371 32.4373C33.9371 33.2127 33.3063 33.8436 32.5309 33.8436C31.5314 33.8436 23.4513 33.8436 22.443 33.8436C21.6664 33.8436 21.0367 34.4732 21.0367 35.2498C21.0367 36.0265 21.6664 36.6561 22.443 36.6561C23.1888 36.6561 22.9099 36.6561 33.4735 36.6561C34.64 36.6561 35.7652 36.1665 36.5603 35.3128L42.7513 28.6668C43.2546 28.1265 44.0634 28.0784 44.6244 28.5005C45.2391 28.9629 45.3781 29.8387 44.9028 30.4725Z" fill="#3366FF"/>
<path d="M23.9997 14.1563C23.2243 14.1563 22.5935 13.5255 22.5935 12.7501C22.5935 12.1608 22.9652 11.6294 23.5184 11.4279C24.2407 11.1649 25.0816 11.5217 25.8252 12.4071C26.3247 13.0018 27.2118 13.079 27.8064 12.5795C28.4011 12.08 28.4784 11.193 27.9789 10.5983C27.2186 9.69306 26.3338 9.07084 25.4059 8.75847V7.12525C25.4059 6.34862 24.7763 5.71899 23.9996 5.71899C23.223 5.71899 22.5934 6.34862 22.5934 7.12525V8.77262C22.5808 8.77703 22.5683 8.78087 22.5558 8.78547C20.8961 9.38997 19.7811 10.9833 19.7811 12.7502C19.7811 15.0764 21.6736 16.9688 23.9997 16.9688C24.7751 16.9688 25.406 17.5997 25.406 18.3751C25.406 18.9415 25.0689 19.4502 24.5473 19.6712C23.9175 19.9377 23.1639 19.7103 22.4793 19.0469C21.9215 18.5065 21.0312 18.5206 20.4908 19.0783C19.9504 19.6361 19.9645 20.5264 20.5223 21.0667C21.1571 21.6818 21.863 22.1164 22.5935 22.3617V24C22.5935 24.7766 23.2231 25.4062 23.9997 25.4062C24.7764 25.4062 25.406 24.7766 25.406 24V22.3527C25.4858 22.3244 25.5653 22.2943 25.6441 22.2608C27.2079 21.5986 28.2185 20.0733 28.2185 18.3751C28.2184 16.0488 26.3259 14.1563 23.9997 14.1563Z" fill="#3366FF"/>
</g>
<defs>
<clipPath id="clip0">
<rect x="6.10352e-05" width="48" height="48" fill="white"/>
</clipPath>
</defs>
</svg>
