<svg width="32" height="32" viewBox="0 0 32 32" fill="none" xmlns="http://www.w3.org/2000/svg">
<path d="M22.9624 14.4937C22.9624 15.0115 22.5427 15.4312 22.0249 15.4312C21.5073 15.4312 21.0874 15.0115 21.0874 14.4937C21.0874 13.9761 21.5073 13.5562 22.0249 13.5562C22.5427 13.5562 22.9624 13.9761 22.9624 14.4937Z" fill="white"/>
<path d="M22.0239 4.5188C20.1208 4.5188 18.5771 6.05884 18.5771 7.96558V7.9668C18.5771 8.48438 18.9968 8.90381 19.5146 8.90381C20.0325 8.90381 20.4521 8.4834 20.4521 7.96558C20.4521 7.09888 21.1531 6.3938 22.0251 6.3938C22.8923 6.3938 23.5979 7.09937 23.5979 7.9668C23.5979 8.83398 22.8923 9.53955 22.0251 9.53955C21.5073 9.53955 21.0876 9.95947 21.0876 10.4771V11.4812C21.0876 11.999 21.5073 12.4187 22.0251 12.4187C22.5427 12.4187 22.9626 11.999 22.9626 11.4812V11.2852C24.4097 10.8757 25.4729 9.54297 25.4729 7.9668C25.4729 6.06543 23.9263 4.5188 22.0239 4.5188Z" fill="white"/>
<path d="M8.99609 23.9258C10.1611 23.0186 10.9126 21.604 10.9126 20.0166C10.9126 17.2849 8.68994 15.0625 5.95825 15.0625C3.22656 15.0625 1.00415 17.2849 1.00415 20.0166C1.00415 21.604 1.75562 23.0186 2.92041 23.9258C1.27637 24.9038 0 26.751 0 29.0542V31.0625C0 31.5803 0.419678 32 0.9375 32H10.9792C11.4968 32 11.9167 31.5803 11.9167 31.0625V29.0542C11.9167 26.7515 10.6406 24.9041 8.99609 23.9258ZM2.87915 20.0166C2.87915 18.3188 4.2605 16.9375 5.9585 16.9375C7.65625 16.9375 9.0376 18.3188 9.0376 20.0166C9.0376 21.7146 7.65625 23.0959 5.9585 23.0959C4.2605 23.0959 2.87915 21.7146 2.87915 20.0166ZM10.0417 30.125H1.875V29.0542C1.875 26.7988 3.69971 24.9709 5.95825 24.9709C8.21362 24.9709 10.0415 26.7957 10.0415 29.0542V30.125H10.0417Z" fill="white"/>
<path d="M28.05 0H16C13.8184 0 12.05 1.76514 12.05 3.94995V22.0249C12.05 22.7917 12.9294 23.2402 13.55 22.7749L17.3167 19.95H28.05C30.2317 19.95 32 18.1848 32 16V3.94995C32 1.76831 30.2349 0 28.05 0V0ZM30.125 16C30.125 17.147 29.1975 18.075 28.05 18.075H17.0042C16.8013 18.075 16.604 18.1409 16.4417 18.2625L13.925 20.1499V3.94995C13.925 2.80298 14.8525 1.875 16 1.875H28.05C29.197 1.875 30.125 2.80249 30.125 3.94995V16Z" fill="white"/>
</svg>
