<svg width="48" height="48" viewBox="0 0 48 48" fill="none" xmlns="http://www.w3.org/2000/svg">
<g clip-path="url(#clip0)">
<path d="M38.8437 19.7406L36.656 20.8254C36.656 3.58422 36.6687 4.43434 36.6299 4.23344C36.5032 3.5755 35.925 3.09429 35.2497 3.09429C35.0909 3.09429 1.51743 3.09401 1.39733 3.09476C0.614058 3.09973 0 3.73994 0 4.50053V29.8128C0 30.5895 0.62962 31.2191 1.40624 31.2191H16.9686V33.1878C16.9686 34.7534 18.0711 36.0656 19.5403 36.3909L18.394 43.2691C18.2511 44.126 18.913 44.9066 19.7811 44.9066H25.4061C26.0877 44.9066 26.6713 44.4177 26.7906 43.7464L28.0609 36.6008L38.8438 41.9476C39.7751 42.4095 40.8748 41.7315 40.8748 40.6878V21.0005C40.8747 19.9575 39.7765 19.2778 38.8437 19.7406ZM30.5837 5.90677L18.2833 14.0618L6.05077 5.90677H30.5837ZM2.81248 7.12813L17.5011 16.9205C17.9724 17.2347 18.5862 17.2355 19.0582 16.9225L33.8435 7.12007V22.22L27.7953 25.2191H20.2498C18.4721 25.2191 17.0209 26.6406 16.971 28.4066H2.81248V7.12813ZM20.2498 33.6566C19.9914 33.6566 19.7811 33.4463 19.7811 33.1878V28.5003C19.7811 28.2419 19.9914 28.0316 20.2498 28.0316H26.7185V33.6566H20.2498ZM21.4411 42.094L22.3786 36.469H25.2277L24.2278 42.094H21.4411ZM38.0622 38.4208L29.531 34.1905V27.4976L38.0622 23.2673V38.4208Z" fill="#3366FF"/>
<path d="M45.657 26.5075L47.157 25.8512C47.8685 25.54 48.193 24.7108 47.8817 23.9993C47.5704 23.2878 46.7412 22.9631 46.0297 23.2746L44.5297 23.9309C43.8182 24.2421 43.4937 25.0713 43.8051 25.7828C44.1166 26.4948 44.9462 26.8187 45.657 26.5075Z" fill="#3366FF"/>
<path d="M47.157 35.8367L45.657 35.1805C44.9454 34.8693 44.1163 35.1936 43.8051 35.9052C43.4937 36.6167 43.8182 37.4459 44.5297 37.7571L46.0297 38.4134C46.7412 38.7247 47.5705 38.4001 47.8817 37.6887C48.193 36.9771 47.8685 36.148 47.157 35.8367Z" fill="#3366FF"/>
<path d="M46.5934 29.4377H45.0934C44.3168 29.4377 43.6871 30.0674 43.6871 30.844C43.6871 31.6206 44.3168 32.2502 45.0934 32.2502H46.5934C47.37 32.2502 47.9996 31.6206 47.9996 30.844C47.9996 30.0674 47.37 29.4377 46.5934 29.4377Z" fill="#3366FF"/>
</g>
<defs>
<clipPath id="clip0">
<rect y="0.000244141" width="48" height="48" fill="white"/>
</clipPath>
</defs>
</svg>
