<svg width="32" height="32" viewBox="0 0 32 32" fill="none" xmlns="http://www.w3.org/2000/svg">
<g clip-path="url(#clip0)">
<path d="M23.6038 30.7084C23.3519 30.7084 23.0945 30.6764 22.8397 30.6097L2.2205 25.0881C0.629887 24.6494 -0.318135 23.0041 0.0978911 21.4147L2.36455 12.7226C2.50322 12.1891 3.04865 11.8651 3.58455 12.008C4.11801 12.1466 4.43931 12.6933 4.29941 13.228L2.03251 21.9215C1.89261 22.4574 2.21122 23.0107 2.74468 23.1574L23.3519 28.6763C23.8812 28.8162 24.4278 28.5015 24.5665 27.9749L25.2704 25.1348C25.4039 24.5989 25.9452 24.2734 26.4811 24.4043C27.0173 24.5376 27.3439 25.0788 27.2118 25.6148L26.5053 28.4683C26.1491 29.819 24.9332 30.7084 23.6038 30.7084Z" fill="white"/>
<path d="M29.0001 22.7082H8.33284C6.67826 22.7082 5.33276 21.3627 5.33276 19.7081V4.37422C5.33276 2.71964 6.67826 1.37415 8.33284 1.37415H29.0001C30.6547 1.37415 32.0002 2.71964 32.0002 4.37422V19.7081C32.0002 21.3627 30.6547 22.7082 29.0001 22.7082ZM8.33284 3.37419C7.78082 3.37419 7.33281 3.8222 7.33281 4.37422V19.7081C7.33281 20.2601 7.78082 20.7081 8.33284 20.7081H29.0001C29.5521 20.7081 30.0001 20.2601 30.0001 19.7081V4.37422C30.0001 3.8222 29.5521 3.37419 29.0001 3.37419H8.33284Z" fill="white"/>
<rect x="9" y="8" width="10" height="2" rx="1" fill="white"/>
<rect x="9" y="14" width="19" height="2" rx="1" fill="white"/>
<path d="M234.737 180.218L211.872 -107.898C210.447 -126.46 194.749 -141.001 176.133 -141.001H130.97V-143.031C130.97 -197.603 86.5729 -242 32.0009 -242C-22.571 -242 -66.9681 -197.603 -66.9681 -143.031V-141.001H-112.13C-130.747 -141.001 -146.446 -126.461 -147.866 -107.937L-170.738 180.257C-172.508 203.332 -164.503 226.305 -148.777 243.283C-133.051 260.261 -110.758 270 -87.6151 270H151.616C174.758 270 197.052 260.262 212.779 243.283C228.505 226.304 236.509 203.332 234.737 180.218ZM-36.9781 -143.031C-36.9781 -181.066 -6.03305 -212.01 32.0009 -212.01C70.0349 -212.01 100.98 -181.065 100.98 -143.031V-141.001H-36.9781V-143.031ZM190.776 222.905C180.558 233.935 166.652 240.01 151.616 240.01H-87.6141C-102.65 240.01 -116.556 233.935 -126.774 222.905C-136.991 211.874 -141.985 197.542 -140.837 182.59L-117.967 -105.605C-117.735 -108.637 -115.171 -111.011 -112.13 -111.011H-66.9681V-74.076C-66.9681 -65.795 -60.2541 -59.081 -51.9731 -59.081C-43.6921 -59.081 -36.9781 -65.795 -36.9781 -74.076V-111.011H100.98V-74.076C100.98 -65.795 107.694 -59.081 115.975 -59.081C124.256 -59.081 130.97 -65.795 130.97 -74.076V-111.011H176.133C179.173 -111.011 181.737 -108.636 181.973 -105.565L204.838 182.55C205.988 197.542 200.993 211.873 190.776 222.905Z" fill="black"/>
<path d="M99.556 12.285C93.702 6.42901 84.207 6.42901 78.352 12.285L11.396 79.241L-14.35 53.495C-20.205 47.639 -29.7 47.639 -35.556 53.495C-41.412 59.351 -41.412 68.845 -35.556 74.701L0.792999 111.05C3.721 113.978 7.55901 115.443 11.395 115.443C15.231 115.443 19.07 113.979 21.997 111.05L99.555 33.492C105.412 27.635 105.412 18.141 99.556 12.285Z" fill="black"/>
</g>
<defs>
<clipPath id="clip0">
<rect width="32" height="32" fill="white"/>
</clipPath>
</defs>
</svg>
