<svg width="305" height="300" viewBox="0 0 305 300" fill="none" xmlns="http://www.w3.org/2000/svg">
<path d="M87.583 103.999C85.103 103.999 82.4925 103.738 80.0125 103.215C60.4336 99.0386 48.0336 79.7208 52.2104 60.2724C56.3873 40.6935 75.7051 28.2935 95.1535 32.4703C104.551 34.2977 112.644 39.9103 117.865 48.0029C123.086 56.0955 124.913 65.7545 122.825 75.2829C119.301 92.2513 104.29 103.999 87.583 103.999ZM87.4525 32.8619C71.3978 32.8619 56.7789 44.0872 53.3852 60.4029C49.3389 79.1987 61.3473 97.8639 80.2735 101.91C99.0693 105.956 117.734 93.9481 121.781 75.0218C123.739 65.885 122.042 56.6176 116.951 48.7861C111.861 40.9545 104.029 35.603 94.8924 33.6451C92.4125 33.123 89.9325 32.8619 87.4525 32.8619Z" fill="#FFAA00"/>
<path d="M87.583 91.468C85.8861 91.468 84.1893 91.3375 82.623 90.9459C76.4883 89.6407 71.1367 85.986 67.743 80.6344C64.2188 75.2828 63.0441 69.0176 64.3493 62.7523C65.6546 56.6176 69.3093 51.266 74.6609 47.8724C80.0125 44.4787 86.2777 43.3039 92.5429 44.6092C98.6777 45.9145 104.029 49.5692 107.423 54.9208C110.817 60.2723 111.991 66.5376 110.686 72.8028C109.381 78.9375 105.726 84.2891 100.375 87.6828C96.4587 90.1628 92.0208 91.468 87.583 91.468ZM87.4524 45.3924C83.1451 45.3924 78.9682 46.5671 75.3135 49.0471C70.3535 52.3102 66.8293 57.2702 65.5241 63.1439C64.2188 69.0176 65.3935 75.0218 68.6567 79.9818C71.9198 84.9417 76.8798 88.466 82.7535 89.7712C88.6272 91.0765 94.6314 89.9017 99.5914 86.6386C104.551 83.3754 108.076 78.4154 109.381 72.5418C110.686 66.6681 109.511 60.6639 106.248 55.7039C102.985 50.7439 98.025 47.2197 92.1514 45.9145C90.5851 45.5229 89.0187 45.3924 87.4524 45.3924Z" fill="#FF9D28"/>
<path d="M87.583 77.7628C86.9304 77.7628 86.1472 77.6322 85.4946 77.5017C80.0125 76.327 76.6188 70.9754 77.7936 65.6238C78.9683 60.1417 84.3199 56.7481 89.6714 57.9228C95.1535 59.0975 98.5472 64.4491 97.3725 69.8007C96.8504 72.4112 95.284 74.6301 93.0651 76.1964C91.3683 77.2406 89.4104 77.7628 87.583 77.7628ZM87.4525 58.967C83.4062 58.967 79.7514 61.8386 78.8378 65.8849C78.3157 68.2343 78.8378 70.4533 80.0125 72.4112C81.3178 74.3691 83.2756 75.6743 85.4946 76.1964C87.8441 76.7185 90.063 76.1964 92.0209 75.0217C93.9788 73.7164 95.284 71.7586 95.8061 69.5396C96.8503 64.8407 93.8483 60.1417 89.0188 59.0975C88.7577 59.0975 88.1051 58.967 87.4525 58.967Z" fill="#FFAA00"/>
<path d="M88.6272 67.0593L69.8315 37.952L72.703 32.992C72.9641 32.6004 72.9641 32.0783 72.703 31.6867L65.5241 20.7226C65.263 20.331 64.8715 20.0699 64.4799 20.2005C64.0883 20.2005 63.5662 20.4615 63.4357 20.8531L60.4336 25.8131L54.6904 26.4657C54.2989 26.4657 53.9073 26.7268 53.6462 27.2489C53.5157 27.6404 53.5157 28.1625 53.7768 28.5541L60.8252 39.5183C61.0862 39.9099 61.4778 40.0404 61.8694 40.0404H61.9999L67.6125 39.5183L86.4083 68.6256C86.6693 69.0172 87.0609 69.1477 87.4525 69.1477C87.7135 69.1477 87.9746 69.0172 88.1051 68.8867C88.7577 68.4951 89.0188 67.5814 88.6272 67.0593ZM56.9094 28.8152L61.2167 28.4236C61.6083 28.4236 61.9999 28.1625 62.2609 27.771L64.4799 23.9857L69.962 32.4699L67.482 36.7773L62.522 37.2994L56.9094 28.8152Z" fill="#3366FF"/>
<path d="M0.652679 154.724C0.652679 154.724 15.1411 162.034 16.0547 184.354C17.099 208.893 41.6378 214.114 47.642 230.691C52.2105 243.482 63.3052 265.541 84.842 251.053C112.905 231.996 104.16 206.282 74.0083 194.404C51.5578 185.529 60.4336 172.215 46.9894 160.076C33.2842 147.546 16.9684 145.457 0.652679 154.724Z" fill="#3366FF"/>
<path d="M97.8945 253.794C77.1409 253.794 66.1767 238.261 61.2167 228.08C57.9535 221.293 51.9493 216.594 45.6841 211.634C36.5473 204.455 27.1494 197.015 23.6252 182.527C18.2736 160.99 0.65263 155.247 0.391578 155.247C0.130526 155.116 0 154.855 0 154.594C0.130526 154.333 0.391578 154.203 0.65263 154.203C0.783156 154.203 18.9263 160.076 24.4084 182.266C27.9326 196.493 37.1999 203.803 46.0757 210.851C52.4714 215.941 58.4756 220.64 61.8693 227.558C67.4819 238.914 80.6651 257.188 107.162 251.575C107.423 251.575 107.684 251.706 107.814 251.967C107.814 252.228 107.684 252.489 107.423 252.619C104.16 253.402 100.897 253.794 97.8945 253.794Z" fill="#274BDB"/>
<path d="M23.7557 181.613C23.4946 181.613 23.2336 181.352 23.2336 181.091C22.7115 162.426 30.282 155.508 30.6736 155.247C30.9346 154.986 31.1957 155.116 31.4567 155.247C31.7178 155.508 31.5873 155.769 31.4567 156.03C31.3262 156.161 23.8862 163.078 24.4083 181.091C24.2778 181.352 24.0168 181.613 23.7557 181.613Z" fill="#274BDB"/>
<path d="M42.421 208.893C42.1599 208.893 41.8989 208.762 41.8989 208.501C37.3304 188.27 47.5115 172.084 47.642 171.954C47.7725 171.693 48.1641 171.693 48.4251 171.823C48.6862 171.954 48.6862 172.345 48.5557 172.606C48.4252 172.737 38.5052 188.661 42.9431 208.371C42.9431 208.632 42.8125 208.893 42.421 208.893Z" fill="#274BDB"/>
<path d="M63.6967 232.126C63.4357 232.126 63.1746 231.865 63.1746 231.604C62.2609 216.072 79.882 203.019 80.6651 202.367C80.9262 202.236 81.1872 202.236 81.4483 202.497C81.5788 202.758 81.5788 203.019 81.3177 203.28C81.1872 203.411 63.4357 216.724 64.3494 231.604C64.2188 231.865 63.9578 232.126 63.6967 232.126Z" fill="#274BDB"/>
<path d="M28.8463 194.535C28.7157 194.535 28.5852 194.535 28.4547 194.404C22.8421 188.27 18.4042 189.183 18.4042 189.183C18.1431 189.314 17.8821 189.053 17.7515 188.792C17.621 188.531 17.8821 188.27 18.1431 188.139C18.4042 188.139 23.2336 186.964 29.2378 193.621C29.4989 193.882 29.3684 194.143 29.2378 194.404C29.1073 194.404 28.9768 194.535 28.8463 194.535Z" fill="#274BDB"/>
<path d="M54.5598 219.074C54.4293 219.074 54.2988 219.074 54.2988 218.943C48.4251 214.505 41.5072 217.246 41.5072 217.377C41.2462 217.508 40.9851 217.377 40.8546 217.116C40.7241 216.855 40.8546 216.594 41.1157 216.463C41.3767 216.333 48.5556 213.461 54.9514 218.16C55.2125 218.291 55.2125 218.682 55.082 218.943C54.9514 218.943 54.8209 219.074 54.5598 219.074Z" fill="#274BDB"/>
<path d="M73.2251 244.135C73.0946 244.135 72.964 244.135 72.8335 244.004C65.7851 238 58.0841 242.96 57.9535 242.96C57.6925 243.091 57.4314 243.091 57.1704 242.83C57.0399 242.569 57.0399 242.308 57.3009 242.047C57.4314 242.047 65.7851 236.695 73.3556 243.091C73.6167 243.221 73.6167 243.613 73.3556 243.874C73.4861 244.135 73.3556 244.135 73.2251 244.135Z" fill="#274BDB"/>
<path d="M58.2146 110.084C58.2146 110.084 57.562 122.484 71.9198 131.621C87.7135 141.802 81.7093 159.945 90.4545 170.257C97.1113 178.219 107.423 194.013 89.6714 202.627C66.3072 213.853 52.7325 198.19 56.3872 173.651C59.1283 155.377 46.9894 156.16 43.9873 142.585C40.8546 128.88 45.8146 117.394 58.2146 110.084Z" fill="#FF3D71"/>
<path d="M81.4482 218.682C81.3177 218.682 81.3177 218.682 81.1872 218.552C81.0567 218.421 81.0567 218.16 81.1872 218.03C95.0229 202.627 88.1051 186.964 82.7535 178.872C79.4903 173.912 78.5767 168.169 77.7935 161.903C76.6188 153.289 75.3135 144.413 67.2209 136.581C54.6904 124.442 57.823 110.215 57.823 110.084C57.823 109.823 58.0841 109.693 58.3451 109.823C58.6062 109.823 58.7367 110.084 58.6062 110.346C58.6062 110.476 55.6041 124.312 67.743 136.059C75.9661 144.021 77.2714 153.028 78.4461 161.903C79.3598 168.038 80.143 173.781 83.2756 178.48C88.7577 186.703 95.9366 202.888 81.7093 218.682C81.7093 218.552 81.5787 218.682 81.4482 218.682Z" fill="#DB2C66"/>
<path d="M66.6987 135.929C66.5682 135.929 66.5682 135.929 66.4377 135.929C54.6904 128.619 47.2504 130.969 47.1198 130.969C46.8588 131.099 46.7283 130.969 46.5977 130.708C46.4672 130.447 46.5977 130.316 46.8588 130.186C47.1198 130.055 54.6904 127.706 66.8293 135.276C66.9598 135.407 67.0903 135.668 66.9598 135.798C66.9598 135.929 66.8293 135.929 66.6987 135.929Z" fill="#DB2C66"/>
<path d="M77.663 158.771C77.5325 158.771 77.402 158.771 77.402 158.64C66.0462 148.068 51.6883 148.59 51.5578 148.59C51.2968 148.59 51.1662 148.459 51.1662 148.198C51.1662 147.937 51.2968 147.807 51.5578 147.807C51.6883 147.807 66.3072 147.285 77.9241 158.118C78.0546 158.249 78.0546 158.51 77.9241 158.64C77.7935 158.771 77.7935 158.771 77.663 158.771Z" fill="#DB2C66"/>
<path d="M59.1283 182.135C58.9977 182.135 58.8672 182.005 58.7367 181.874C58.6062 181.613 58.7367 181.483 58.9977 181.352C59.6504 181.091 75.0525 174.565 84.9724 181.091C85.103 181.221 85.2335 181.483 85.103 181.613C84.9724 181.744 84.7114 181.874 84.5808 181.744C75.0524 175.478 59.5198 182.005 59.3893 182.135C59.2588 182.135 59.2588 182.135 59.1283 182.135Z" fill="#DB2C66"/>
<path d="M73.2251 144.282C73.0946 144.282 72.8335 144.152 72.8335 144.021C70.7451 137.495 73.3556 134.623 73.4861 134.493C73.6167 134.362 73.8777 134.362 74.0083 134.493C74.1388 134.623 74.1388 134.884 74.0083 135.015C74.0083 135.015 71.6588 137.626 73.6167 143.76C73.7472 144.021 73.6167 144.282 73.2251 144.282C73.3556 144.282 73.3556 144.282 73.2251 144.282Z" fill="#DB2C66"/>
<path d="M79.6209 170.779C79.3598 170.779 79.2293 170.648 79.2293 170.387C78.5767 164.383 83.1451 160.728 83.4061 160.598C83.5367 160.467 83.7977 160.467 83.9282 160.728C84.0588 160.859 84.0588 161.12 83.7977 161.251C83.7977 161.251 79.3598 164.775 79.8819 170.387C80.0125 170.518 79.8819 170.779 79.6209 170.779Z" fill="#DB2C66"/>
<path d="M89.0187 192.708C88.8882 192.708 88.6272 192.577 88.6272 192.316C87.3219 184.746 93.9787 181.352 94.1093 181.221C94.3703 181.091 94.5008 181.221 94.6314 181.352C94.7619 181.613 94.6314 181.743 94.5008 181.874C94.2398 182.004 88.2356 185.137 89.5408 192.055C89.5408 192.447 89.4103 192.577 89.0187 192.708C89.1493 192.708 89.1493 192.708 89.0187 192.708Z" fill="#DB2C66"/>
<path d="M272.056 37.1208C272.056 37.1208 269.707 44.5608 259.134 46.6492C247.648 48.9987 246.995 61.0071 239.555 65.0534C233.812 68.186 224.153 75.1039 232.637 84.1102C243.732 95.9881 255.218 89.8534 258.612 74.7123C261.092 63.4871 268.01 66.6197 272.839 59.4408C277.799 52.0008 277.669 44.1693 272.056 37.1208Z" fill="#FF3D71"/>
<path d="M233.812 95.2049C233.682 95.2049 233.551 95.2049 233.551 95.0744C228.852 82.6744 236.684 74.8428 241.774 71.1881C244.776 69.0997 246.473 65.9671 248.431 62.5734C251.172 57.7439 253.913 52.7839 260.57 49.9124C270.359 45.7355 271.795 36.9903 271.795 36.9903C271.795 36.8598 271.926 36.7292 272.056 36.7292C272.187 36.7292 272.317 36.8598 272.317 36.9903C272.317 37.1208 270.881 46.1271 260.831 50.304C254.305 53.045 251.564 58.005 248.953 62.7039C246.995 66.0976 245.298 69.3608 242.166 71.4492C237.206 74.9734 229.505 82.5439 234.204 94.6828C234.073 94.9439 234.073 95.2049 233.812 95.2049C233.943 95.2049 233.812 95.2049 233.812 95.2049Z" fill="#DB2C66"/>
<path d="M273.884 51.7396H273.753C273.753 51.7396 269.837 48.7375 261.353 50.3038C261.223 50.3038 261.092 50.1733 261.092 50.0428C261.092 49.9122 261.092 49.7817 261.353 49.7817C270.098 48.0849 274.014 51.2175 274.145 51.348C274.275 51.4785 274.275 51.6091 274.145 51.7396C274.014 51.7396 273.884 51.7396 273.884 51.7396Z" fill="#DB2C66"/>
<path d="M267.227 61.1376C267.096 61.1376 258.743 57.4829 249.736 61.1376C249.606 61.1376 249.475 61.1376 249.345 61.0071C249.345 60.8766 249.345 60.7461 249.475 60.6155C258.743 56.9608 267.096 60.6155 267.227 60.6155C267.357 60.6155 267.357 60.8766 267.357 61.0071C267.488 61.1376 267.357 61.1376 267.227 61.1376Z" fill="#DB2C66"/>
<path d="M255.218 78.889C255.218 78.889 255.088 78.889 255.088 78.7584C254.957 78.6279 247.387 71.3185 240.469 72.7542C240.338 72.7542 240.208 72.7542 240.208 72.4932C240.208 72.3627 240.208 72.2321 240.469 72.2321C247.648 70.6658 255.218 77.9753 255.61 78.3669C255.74 78.4974 255.74 78.6279 255.61 78.7584C255.349 78.889 255.218 78.889 255.218 78.889Z" fill="#DB2C66"/>
<path d="M255.479 53.6978H255.349C255.218 53.5673 255.218 53.4368 255.349 53.3062C257.829 50.1736 257.046 48.2157 257.046 48.0852C257.046 47.9547 257.046 47.8241 257.176 47.6936C257.307 47.6936 257.437 47.6936 257.568 47.8241C257.568 47.9547 258.482 50.1736 255.741 53.5673C255.61 53.5673 255.61 53.6978 255.479 53.6978Z" fill="#DB2C66"/>
<path d="M245.82 67.6638C245.82 67.6638 245.69 67.6638 245.82 67.6638C245.559 67.5333 245.559 67.4028 245.559 67.2723C247.256 64.1396 245.429 61.1375 245.429 61.1375C245.298 61.007 245.429 60.8765 245.559 60.746C245.69 60.6154 245.82 60.746 245.951 60.8765C246.082 61.007 247.909 64.1396 246.212 67.5333C245.951 67.6638 245.951 67.6638 245.82 67.6638Z" fill="#DB2C66"/>
<path d="M235.378 78.367H235.248C235.117 78.2364 235.117 78.1059 235.117 77.9754C237.467 74.1901 234.465 70.927 234.465 70.927C234.334 70.7964 234.334 70.6659 234.465 70.5354C234.595 70.4049 234.726 70.4049 234.856 70.5354C234.856 70.5354 237.989 74.0596 235.509 78.2364L235.378 78.367Z" fill="#DB2C66"/>
<path d="M294.376 84.8933C294.376 84.8933 282.629 83.7186 273.231 96.9017C262.919 111.39 245.821 104.994 235.639 112.695C227.808 118.7 212.275 127.836 204.966 110.476C195.307 87.7649 210.84 75.4954 233.943 80.1944C251.172 83.7186 251.042 72.1017 263.964 69.8828C277.277 67.6639 287.98 72.8849 294.376 84.8933Z" fill="#3366FF"/>
<path d="M210.317 111.26C203.922 111.26 197.004 109.041 190.347 102.384C190.216 102.253 190.216 101.992 190.347 101.862C190.478 101.731 190.739 101.731 190.869 101.862C204.835 115.698 220.107 109.824 227.938 105.125C232.768 102.253 238.381 101.731 244.254 101.209C252.477 100.426 260.962 99.6429 268.793 92.3335C280.932 80.9777 294.246 84.5019 294.376 84.6324C294.637 84.6324 294.768 84.8935 294.637 85.1545C294.637 85.4156 294.376 85.5461 294.115 85.4156C293.985 85.4156 281.063 81.8914 269.185 92.9861C261.223 100.426 252.608 101.209 244.254 101.992C238.381 102.514 232.898 103.037 228.33 105.908C224.023 108.388 217.627 111.26 210.317 111.26Z" fill="#274BDB"/>
<path d="M269.837 92.333C269.707 92.333 269.707 92.333 269.576 92.2025C269.446 92.0719 269.315 91.8109 269.446 91.6804C276.886 80.8467 275.058 73.6678 275.058 73.5372C275.058 73.2762 275.189 73.1457 275.319 73.0151C275.58 73.0151 275.711 73.0151 275.841 73.2762C275.972 73.5372 277.799 80.8467 270.098 91.9414C270.098 92.2025 269.968 92.333 269.837 92.333Z" fill="#274BDB"/>
<path d="M247.648 101.601C247.517 101.601 247.387 101.601 247.387 101.47C247.256 101.34 247.256 101.079 247.387 100.948C257.959 90.6366 258.09 77.0619 258.09 76.9314C258.09 76.6703 258.22 76.5398 258.481 76.5398C258.743 76.5398 258.873 76.6703 258.873 76.9314C258.873 77.0619 258.743 91.0282 247.909 101.47C247.778 101.601 247.648 101.601 247.648 101.601Z" fill="#274BDB"/>
<path d="M225.458 107.344C225.328 107.344 225.328 107.344 225.197 107.213C225.067 107.083 224.936 106.822 225.067 106.691C231.463 97.9459 225.98 82.8049 225.85 82.6744C225.719 82.4133 225.85 82.2828 226.111 82.1523C226.372 82.0218 226.503 82.1523 226.633 82.4133C226.894 83.066 232.376 98.0764 225.719 107.083C225.719 107.344 225.589 107.344 225.458 107.344Z" fill="#274BDB"/>
<path d="M270.098 99.1207C269.968 99.1207 269.837 99.1207 269.837 98.9902C269.837 98.9902 267.488 96.6407 261.614 98.207C261.353 98.207 261.223 98.0765 261.092 97.946C261.092 97.6849 261.223 97.5544 261.353 97.4239C267.749 95.7271 270.229 98.3376 270.359 98.4681C270.49 98.5986 270.49 98.8597 270.359 98.9902C270.359 98.9902 270.229 99.1207 270.098 99.1207Z" fill="#274BDB"/>
<path d="M244.907 107.213C244.776 107.213 244.646 107.213 244.646 107.083C244.646 107.083 241.513 102.645 236.162 103.036C235.901 103.036 235.77 102.906 235.77 102.645C235.77 102.384 235.901 102.253 236.162 102.253C241.905 101.862 245.168 106.43 245.298 106.691C245.429 106.822 245.429 107.083 245.168 107.213C245.037 107.213 245.037 107.213 244.907 107.213Z" fill="#274BDB"/>
<path d="M224.806 116.35C224.675 116.35 224.545 116.22 224.414 116.089C224.284 115.828 221.543 109.954 215.016 110.868C214.755 110.868 214.625 110.738 214.625 110.477C214.625 110.216 214.755 110.085 215.016 110.085C222.195 109.171 225.197 115.698 225.328 115.828C225.458 115.959 225.328 116.22 225.067 116.35C224.806 116.35 224.806 116.35 224.806 116.35Z" fill="#274BDB"/>
<path d="M229.465 295.301V252.227C230.77 252.227 231.684 251.183 231.684 250.008C231.684 248.834 230.639 247.79 229.465 247.79H61.4777C47.1198 247.79 35.3725 259.537 35.3725 273.895C35.3725 288.253 47.1198 300 61.4777 300H229.465C230.77 300 231.684 298.956 231.684 297.781C231.684 296.606 230.77 295.301 229.465 295.301Z" fill="#274BDB"/>
<path d="M289.376 297.52H150.105C136.922 297.52 126.349 286.817 126.349 273.764C126.349 260.581 137.052 250.008 150.105 250.008H289.507C285.33 250.008 285.33 297.52 289.376 297.52Z" fill="white"/>
<path d="M293.814 299.869H149.974C135.616 299.869 123.869 288.122 123.869 273.764C123.869 259.406 135.616 247.659 149.974 247.659H293.814C295.119 247.659 296.033 248.703 296.033 249.878C296.033 251.053 294.989 252.097 293.814 252.097H149.974C138.096 252.097 128.437 261.756 128.437 273.634C128.437 285.511 138.096 295.17 149.974 295.17H293.814C295.119 295.17 296.033 296.215 296.033 297.389C296.033 298.564 295.119 299.869 293.814 299.869Z" fill="#3366FF"/>
<path d="M265.49 199.887V159.685C266.665 159.685 267.578 158.771 267.578 157.596C267.578 156.421 266.665 155.508 265.49 155.508H87.1914C73.7472 155.508 62.783 166.472 62.783 179.916C62.783 193.36 73.7472 204.325 87.1914 204.325H265.49C266.665 204.325 267.578 203.411 267.578 202.236C267.578 200.8 266.665 199.887 265.49 199.887Z" fill="#FF9D28"/>
<path d="M298.121 201.975H191.09C178.821 201.975 168.77 192.055 168.77 179.655C168.77 167.386 178.69 157.335 191.09 157.335H298.121C294.336 157.466 294.336 201.975 298.121 201.975Z" fill="white"/>
<path d="M302.298 204.064H191.09C177.646 204.064 166.682 193.099 166.682 179.655C166.682 166.211 177.646 155.247 191.09 155.247H302.298C303.473 155.247 304.387 156.161 304.387 157.335C304.387 158.51 303.473 159.424 302.298 159.424H191.09C179.995 159.424 170.989 168.43 170.989 179.525C170.989 190.619 179.995 199.626 191.09 199.626H302.298C303.473 199.626 304.387 200.539 304.387 201.714C304.387 203.15 303.473 204.064 302.298 204.064Z" fill="#FFAA00"/>
<path d="M116.951 243.874V207.848C115.907 207.848 114.994 206.935 114.994 205.891C114.994 204.846 115.907 203.933 116.951 203.933H257.267C269.275 203.933 279.065 213.722 279.065 225.73C279.065 237.739 269.275 247.528 257.267 247.528H116.951C115.907 247.528 114.994 246.615 114.994 245.57C114.994 244.657 115.907 243.874 116.951 243.874Z" fill="#FF3D71"/>
<path d="M66.9599 245.831H183.259C194.223 245.831 203.099 236.955 203.099 225.991C203.099 215.027 194.223 206.151 183.259 206.151H66.9599C70.2231 206.021 70.2231 245.831 66.9599 245.831Z" fill="white"/>
<path d="M63.1746 247.659H183.259C195.267 247.659 205.056 237.869 205.056 225.861C205.056 213.853 195.267 204.063 183.259 204.063H63.1746C62.1304 204.063 61.2167 204.977 61.2167 206.021C61.2167 207.065 62.1304 207.979 63.1746 207.979H183.259C193.179 207.979 201.271 216.072 201.271 225.992C201.271 235.912 193.179 244.004 183.259 244.004H63.1746C62.1304 244.004 61.2167 244.918 61.2167 245.962C61.3473 246.876 62.1304 247.659 63.1746 247.659Z" fill="#DB2C66"/>
<path d="M246.473 77.1921C249.736 56.569 235.378 37.2511 214.494 34.7711C195.829 32.5522 178.208 44.9522 174.162 63.3563C172.073 72.7542 173.77 82.0216 178.208 89.7226C181.993 96.2489 183.821 103.689 183.037 111.259L182.646 115.045C182.124 120.918 186.17 126.139 191.913 127.053L209.665 129.925C215.408 130.838 221.021 127.184 222.326 121.44L223.239 117.655C224.936 110.346 228.983 103.819 234.595 98.8594C240.73 93.3773 245.037 85.9373 246.473 77.1921Z" fill="#FFAA00"/>
<path d="M211.492 142.064L186.17 138.017C185.126 137.887 184.343 136.843 184.604 135.798L185.256 131.883C185.387 130.838 186.431 130.055 187.475 130.316L212.797 134.363C213.842 134.493 214.625 135.537 214.364 136.581L213.711 140.497C213.581 141.541 212.536 142.194 211.492 142.064Z" fill="#DADCE0"/>
<path d="M222.848 89.0696C220.368 88.6781 219.585 86.0675 218.932 83.7181C218.279 81.3686 217.757 79.8023 216.452 79.5412C215.147 79.2802 214.103 80.5854 212.797 82.6739C211.492 84.6317 209.926 86.8507 207.446 86.4591C204.966 86.0675 204.183 83.457 203.53 81.1075C202.877 78.7581 202.355 77.1918 201.05 76.9307C199.745 76.6697 198.7 77.9749 197.395 80.0633C196.09 82.0212 194.524 84.2402 192.044 83.8486C189.564 83.457 188.781 80.8465 188.128 78.497C187.475 76.1476 186.953 74.5812 185.648 74.3202C185.256 74.1897 184.865 73.7981 184.995 73.4065C185.126 73.0149 185.517 72.6233 185.909 72.7539C188.389 73.1455 189.172 75.756 189.825 78.1054C190.477 80.4549 190.999 82.0212 192.305 82.2823C193.61 82.5433 194.654 81.2381 195.959 79.1497C197.265 77.1918 198.831 74.9728 201.311 75.3644C203.791 75.756 204.574 78.3665 205.227 80.716C205.879 83.0654 206.402 84.6317 207.707 84.8928C209.012 85.1538 210.056 83.8486 211.362 81.7602C212.667 79.8023 214.233 77.5833 216.713 77.9749C219.193 78.3665 219.976 80.977 220.629 83.3265C221.281 85.6759 221.804 87.2423 223.109 87.5033C224.414 87.7644 225.458 86.4591 226.764 84.3707C228.069 82.4128 229.635 80.1939 232.115 80.5854C232.507 80.716 232.898 81.1075 232.768 81.4991C232.637 81.8907 232.246 82.2823 231.854 82.1517C230.549 81.8907 229.505 83.196 228.199 85.2844C226.894 87.2423 225.328 89.4612 222.848 89.0696Z" fill="white"/>
<path d="M145.89 155.107L84.6197 163.377C78.9813 164.129 73.7188 159.994 72.9671 154.355L68.4563 120.525C67.7045 114.887 71.8394 109.624 77.4778 108.872L138.748 100.603C144.387 99.851 149.649 103.986 150.401 109.624L154.912 143.455C155.663 149.093 151.529 154.355 145.89 155.107Z" fill="#FF3D71"/>
<path d="M125.216 130.299L101.535 120.526L104.918 146.087L125.216 130.299Z" fill="white"/>
<path d="M149.556 18.624H164.286C164.286 18.624 164.286 7.95753 164.286 4.90996C164.286 1.8624 161.239 0 156.329 0C151.419 0 149.556 2.70895 149.556 6.43375C149.556 9.98924 149.556 18.624 149.556 18.624Z" fill="#222B45"/>
<path d="M105.874 26.7508C106.044 26.0735 106.721 25.5656 107.398 25.7349L128.054 29.9677L146.678 23.1953C146.847 23.1953 146.847 23.1953 147.016 23.026C147.186 23.026 147.355 23.026 147.524 23.026H147.694C147.863 23.026 147.863 23.026 148.032 23.026L156.328 21.8408L163.101 23.1953C163.27 23.1953 163.439 23.1953 163.778 23.3646C163.947 23.3646 163.947 23.3646 164.117 23.5339L182.741 30.3063L203.396 26.0735C204.074 25.9042 204.581 26.2429 204.751 26.9201C204.92 27.5973 204.751 28.2746 204.074 28.6132L183.249 36.5707C182.741 36.74 182.402 36.74 181.894 36.5707L181.555 36.4014L167.672 32.8459C167.672 35.0469 167.333 44.1896 165.81 59.0888C165.81 59.0888 150.91 59.0888 146.001 59.0888C146.339 52.6551 148.879 41.9886 144.477 32.5073L129.239 36.4014L128.9 36.5707C128.392 36.74 127.884 36.74 127.546 36.5707L106.721 28.6132C106.044 28.1053 105.705 27.428 105.874 26.7508Z" fill="#FF3D71"/>
<path d="M203.735 26.0737L207.121 26.4123L211.015 26.5817L211.862 28.6134L207.46 28.7827L203.735 27.7668V26.0737Z" fill="#FBBEBE"/>
<path d="M107.06 26.0737L103.504 25.3965L99.61 25.5658L98.7634 27.5975L103.335 27.7668H106.89L107.06 26.0737Z" fill="#FBBEBE"/>
<path d="M152.434 22.5182C153.62 21.1637 153.112 15.0686 152.604 10.4973C152.434 9.31211 152.265 8.12695 152.265 6.94178C152.265 6.26455 152.265 5.75662 152.265 5.24869C152.096 0.000110388 161.746 0.000110388 162.593 5.24869C163.609 11.6824 163.947 16.2538 159.884 16.5924C159.207 16.5924 158.699 16.5924 158.191 16.5924C158.191 18.9627 158.36 21.841 159.715 23.0261C161.916 24.7192 159.545 26.7509 155.651 26.243C151.757 26.0737 150.911 24.3806 152.434 22.5182Z" fill="#FBBEBE"/>
<path d="M138.551 103.618L146.001 58.7507H152.265H165.81L171.058 98.7077C171.228 100.401 171.228 102.094 171.058 103.787C171.058 103.956 171.058 104.126 171.058 104.464V104.633C170.043 113.776 165.302 152.04 165.302 152.04H160.223C160.223 152.04 157.344 123.765 161.069 105.141L155.651 77.0361L151.08 97.1839C150.911 97.8611 150.741 98.5384 150.572 99.2156C148.879 106.496 136.181 151.871 136.181 151.871H131.102C131.271 152.209 131.948 122.072 138.551 103.618Z" fill="#222B45"/>
<path d="M165.132 152.209C165.132 152.209 170.55 154.748 174.275 154.748L174.783 156.442H159.715L160.222 152.04H165.132V152.209Z" fill="#3366FF"/>
<path d="M136.181 152.209C136.181 152.209 137.366 153.563 140.752 154.748L141.26 156.442H130.932L131.271 152.04H136.181V152.209Z" fill="#3366FF"/>
<path d="M162.424 3.72518C162.424 3.72518 160.392 9.31238 152.604 8.12722L150.911 7.11136V6.09551C150.911 3.55587 152.942 1.35486 155.482 1.18555H156.837L159 1.5L160.561 2.2014L162.424 3.72518Z" fill="#222B45"/>
<path d="M153.45 8.12697C153.958 9.48145 154.635 10.6666 153.281 10.8359C151.926 11.0052 150.911 9.48144 150.911 8.29628C150.911 6.94181 152.942 7.11112 153.45 8.12697Z" fill="#FBBEBE"/>
</svg>
