<svg width="32" height="32" viewBox="0 0 32 32" fill="none" xmlns="http://www.w3.org/2000/svg">
<path d="M28.1749 5.29684H3.82515C1.71588 5.29684 0 7.01272 0 9.12207V22.878C0 24.9872 1.71588 26.7032 3.82515 26.7032H28.1748C30.284 26.7032 32 24.9872 32 22.878V9.12207C32.0001 7.01272 30.2841 5.29684 28.1749 5.29684ZM29.8835 22.8779C29.8835 23.8201 29.117 24.5866 28.1749 24.5866H3.82515C2.88305 24.5866 2.11644 23.8201 2.11644 22.8779V13H29.8834L29.8835 22.8779ZM29.8835 11H2.11651V9.122C2.11651 8.17982 2.88312 7.41329 3.82522 7.41329H28.1749C29.117 7.41329 29.8835 8.17982 29.8835 9.122V11Z" fill="white"/>
<path d="M4.74322 22.6236H10.5373C10.7447 22.6236 10.9131 22.4554 10.9131 22.2479V21.1048C10.9131 20.8973 10.7447 20.7291 10.5373 20.7291H4.74322C4.53576 20.7291 4.36743 20.8973 4.36743 21.1048V22.2479C4.36736 22.4554 4.53569 22.6236 4.74322 22.6236Z" fill="white"/>
<path d="M21.7452 17.336C22.3473 17.336 22.9023 17.5376 23.3468 17.8767C23.7913 17.5378 24.3461 17.336 24.9484 17.336C26.4086 17.336 27.5923 18.5197 27.5923 19.9799C27.5923 21.4401 26.4085 22.6237 24.9484 22.6237C24.3462 22.6237 23.7913 22.422 23.3468 22.0829C22.9023 22.422 22.3475 22.6237 21.7452 22.6237C20.285 22.6237 19.1013 21.4401 19.1013 19.9799C19.1013 18.5197 20.2851 17.336 21.7452 17.336Z" fill="white"/>
</svg>
