<svg width="32" height="32" viewBox="0 0 32 32" fill="none" xmlns="http://www.w3.org/2000/svg">
<path d="M29.1876 9.43696H22.625V4.74946C22.625 3.19864 21.3634 1.93695 19.8125 1.93695H2.81251C1.26169 1.93695 0 3.19864 0 4.74946V15.9995C0 17.5503 1.26169 18.812 2.81251 18.812H3.75001V21.6245C3.75001 22.3753 4.58863 22.8171 5.20751 22.4046L9.37502 19.6262V23.4995C9.37502 25.0503 10.6367 26.312 12.1875 26.312H21.4037L26.7925 29.9046C27.4122 30.3178 28.25 29.8755 28.25 29.1245V26.312H29.1875C30.7383 26.312 32 25.0503 32 23.4995V12.2495C32.0001 10.6987 30.7384 9.43696 29.1876 9.43696ZM9.7899 17.0962C9.78902 17.0968 9.78808 17.0974 9.78721 17.0979L5.62501 19.8727V17.8745C5.62501 17.3567 5.20526 16.937 4.68751 16.937H2.81251C2.29557 16.937 1.875 16.5164 1.875 15.9995V4.74946C1.875 4.23252 2.29557 3.81195 2.81251 3.81195H19.8125C20.3295 3.81195 20.75 4.23252 20.75 4.74946V15.9995C20.75 16.5164 20.3295 16.937 19.8125 16.937H10.3125C10.1311 16.937 9.94358 16.9931 9.7899 17.0962ZM30.1251 23.4995C30.1251 24.0164 29.7045 24.437 29.1876 24.437H27.3126C26.7948 24.437 26.3751 24.8567 26.3751 25.3745V27.3727L22.2075 24.5944C22.0535 24.4917 21.8726 24.437 21.6875 24.437H12.1875C11.6706 24.437 11.25 24.0164 11.25 23.4995V18.812H19.8125C21.3634 18.812 22.625 17.5503 22.625 15.9995V11.312H29.1876C29.7045 11.312 30.1251 11.7325 30.1251 12.2495V23.4995Z" fill="white"/>
<path d="M12.1875 11.312H4.6875C4.16975 11.312 3.75 11.7318 3.75 12.2495C3.75 12.7673 4.16975 13.187 4.6875 13.187H12.1875C12.7053 13.187 13.125 12.7673 13.125 12.2495C13.125 11.7318 12.7053 11.312 12.1875 11.312Z" fill="white"/>
<path d="M17.9375 7.56195H4.6875C4.16975 7.56195 3.75 7.9817 3.75 8.49945C3.75 9.0172 4.16975 9.43695 4.6875 9.43695H17.9375C18.4553 9.43695 18.875 9.0172 18.875 8.49945C18.875 7.9817 18.4553 7.56195 17.9375 7.56195Z" fill="white"/>
</svg>
