<svg width="48" height="48" viewBox="0 0 48 48" fill="none" xmlns="http://www.w3.org/2000/svg">
<g clip-path="url(#clip0)">
<path d="M41.7154 0.411988C41.1665 -0.137329 40.2759 -0.137329 39.7269 0.411988L28.8889 11.25H4.31244C1.98627 11.25 0.093689 13.1426 0.093689 15.4688V35.1559C0.093689 37.4825 1.98627 39.3747 4.31244 39.3747H5.81245V46.5934C5.81245 47.1651 6.15852 47.68 6.68769 47.8957C7.22456 48.1147 7.82991 47.9795 8.22395 47.5771L16.2476 39.3747H32.625C34.9512 39.3747 36.8437 37.4825 36.8437 35.1559V19.2048L47.6818 8.36683C48.2307 7.81751 48.2307 6.92725 47.6818 6.37793L41.7154 0.411988ZM28.7885 23.2822L24.8111 19.3048L36.7438 7.37256L40.7212 11.35L28.7885 23.2822ZM23.313 21.7841L26.3093 24.7804L21.1735 26.9198L23.313 21.7841ZM34.0312 35.1559C34.0312 35.9315 33.4002 36.5622 32.625 36.5622H15.6562C15.2779 36.5622 14.9154 36.7149 14.651 36.9851L8.62495 43.1452V37.9684C8.62495 37.192 7.99543 36.5622 7.2187 36.5622H4.31244C3.53717 36.5622 2.90619 35.9315 2.90619 35.1559V15.4688C2.90619 14.6931 3.53717 14.0625 4.31244 14.0625H26.076L21.828 18.3106C21.7108 18.4277 21.5947 18.5892 21.5174 18.7804L17.625 28.125H10.0312C9.25447 28.125 8.62495 28.7545 8.62495 29.5313C8.62495 30.3076 9.25447 30.9364 10.0312 30.9364H18.5617H18.5628C18.7437 30.9364 18.9378 30.8994 19.1154 30.8233L29.313 26.5759C29.4829 26.5097 29.6543 26.3943 29.7832 26.2654L34.0312 22.0174V35.1559ZM42.7097 9.36109L38.7323 5.38367L40.7212 3.39514L44.6986 7.37256L42.7097 9.36109Z" fill="#3366FF"/>
</g>
<defs>
<clipPath id="clip0">
<rect width="48" height="48" fill="white"/>
</clipPath>
</defs>
</svg>
