<svg width="54" height="44" viewBox="0 0 54 44" fill="none" xmlns="http://www.w3.org/2000/svg">
<path d="M45.6666 0.666992H8.33331C6.21158 0.666992 4.17675 1.50985 2.67646 3.01014C1.17617 4.51043 0.333313 6.54526 0.333313 8.66699V35.3337C0.333313 37.4554 1.17617 39.4902 2.67646 40.9905C4.17675 42.4908 6.21158 43.3337 8.33331 43.3337H45.6666C47.7884 43.3337 49.8232 42.4908 51.3235 40.9905C52.8238 39.4902 53.6666 37.4554 53.6666 35.3337V8.66699C53.6666 6.54526 52.8238 4.51043 51.3235 3.01014C49.8232 1.50985 47.7884 0.666992 45.6666 0.666992ZM43.88 6.00033L27 18.667L10.12 6.00033H43.88ZM45.6666 38.0003H8.33331C7.62607 38.0003 6.94779 37.7194 6.4477 37.2193C5.9476 36.7192 5.66665 36.0409 5.66665 35.3337V9.33366L25.4 24.1337C25.8616 24.4799 26.423 24.667 27 24.667C27.577 24.667 28.1384 24.4799 28.6 24.1337L48.3333 9.33366V35.3337C48.3333 36.0409 48.0524 36.7192 47.5523 37.2193C47.0522 37.7194 46.3739 38.0003 45.6666 38.0003Z" fill="#00E096"/>
</svg>
