<svg width="22" height="22" viewBox="0 0 22 22" fill="none" xmlns="http://www.w3.org/2000/svg">
    <path d="M1.15789 2.03735C0.521053 2.03735 0 2.55841 0 3.19525C0 3.83209 0.521053 4.35314 1.15789 4.35314H20.8421C21.4789 4.35314 22 3.83209 22 3.19525C22 2.55841 21.4789 2.03735 20.8421 2.03735H1.15789ZM1.15789 9.85314C0.521053 9.85314 0 10.3742 0 11.011C0 11.6479 0.521053 12.1689 1.15789 12.1689H20.8421C21.4789 12.1689 22 11.6479 22 11.011C22 10.3742 21.4789 9.85314 20.8421 9.85314H1.15789ZM1.15789 17.6689C0.521053 17.6689 0 18.19 0 18.8268C0 19.4637 0.521053 19.9847 1.15789 19.9847H20.8421C21.4789 19.9847 22 19.4637 22 18.8268C22 18.19 21.4789 17.6689 20.8421 17.6689H1.15789Z"
          fill="white"/>
</svg>
