<svg width="25" height="48" viewBox="0 0 25 48" fill="none" xmlns="http://www.w3.org/2000/svg">
<path d="M0 12.3429V24.6857C0 31.4743 5.55429 37.0286 12.3429 37.0286C19.1314 37.0286 24.6857 31.4743 24.6857 24.6857V12.3429C24.6857 5.55429 19.1314 0 12.3429 0C5.55429 0 0 5.55429 0 12.3429ZM12.3429 2.74286C17.6229 2.74286 21.9429 7.06286 21.9429 12.3429V24.6857C21.9429 29.9657 17.6229 34.2857 12.3429 34.2857C7.06286 34.2857 2.74286 29.9657 2.74286 24.6857V12.3429C2.74286 7.06286 7.06286 2.74286 12.3429 2.74286Z" fill="#C5CEE0"/>
<path d="M12.3429 14.4C13.0971 14.4 13.7143 13.7828 13.7143 13.0286V8.91428C13.7143 8.15999 13.0971 7.54285 12.3429 7.54285C11.5886 7.54285 10.9714 8.15999 10.9714 8.91428V13.0286C10.9714 13.7828 11.5886 14.4 12.3429 14.4Z" fill="#C5CEE0"/>
<path d="M11.3828 47.5886C11.6571 47.8628 12 48 12.3428 48C12.6857 48 13.0286 47.8628 13.3028 47.5886L16.7314 44.16C17.28 43.6114 17.28 42.7886 16.7314 42.24C16.1828 41.6914 15.36 41.6914 14.8114 42.24L12.3428 44.7086L9.87428 42.24C9.32571 41.6914 8.50285 41.6914 7.95428 42.24C7.4057 42.7886 7.4057 43.6114 7.95428 44.16L11.3828 47.5886Z" fill="#C5CEE0"/>
</svg>
