<svg width="64" height="64" viewBox="0 0 64 64" fill="none" xmlns="http://www.w3.org/2000/svg">
<path d="M32 5.33301C26.7258 5.33301 21.5701 6.89698 17.1848 9.82715C12.7995 12.7573 9.38154 16.9221 7.3632 21.7948C5.34487 26.6675 4.81678 32.0293 5.84572 37.2021C6.87466 42.3749 9.41441 47.1265 13.1438 50.8559C16.8732 54.5853 21.6248 57.125 26.7976 58.154C31.9704 59.1829 37.3322 58.6548 42.2049 56.6365C47.0776 54.6181 51.2423 51.2002 54.1725 46.8149C57.1027 42.4296 58.6667 37.2738 58.6667 31.9997C58.6667 28.4978 57.9769 25.0301 56.6368 21.7948C55.2967 18.5594 53.3324 15.6197 50.8562 13.1435C48.3799 10.6673 45.4402 8.70301 42.2049 7.36289C38.9695 6.02276 35.5019 5.33301 32 5.33301ZM32 53.333C27.7807 53.333 23.6561 52.0818 20.1478 49.7377C16.6396 47.3936 13.9052 44.0617 12.2906 40.1636C10.6759 36.2654 10.2534 31.976 11.0766 27.8377C11.8997 23.6995 13.9315 19.8983 16.915 16.9147C19.8986 13.9312 23.6998 11.8994 27.8381 11.0763C31.9763 10.2531 36.2657 10.6756 40.1639 12.2902C44.0621 13.9049 47.3939 16.6393 49.738 20.1475C52.0821 23.6558 53.3333 27.7803 53.3333 31.9997C53.3333 37.6576 51.0857 43.0838 47.0849 47.0846C43.0842 51.0854 37.6579 53.333 32 53.333Z" fill="#FF3D71"/>
<path d="M39.2267 24.7732C38.9788 24.5232 38.6838 24.3248 38.3589 24.1895C38.0339 24.0541 37.6854 23.9844 37.3334 23.9844C36.9813 23.9844 36.6328 24.0541 36.3078 24.1895C35.9829 24.3248 35.6879 24.5232 35.44 24.7732L32 28.2398L28.56 24.7732C28.0579 24.271 27.3768 23.9889 26.6667 23.9889C25.9565 23.9889 25.2755 24.271 24.7734 24.7732C24.2712 25.2753 23.9891 25.9564 23.9891 26.6665C23.9891 27.3766 24.2712 28.0577 24.7734 28.5598L28.24 31.9998L24.7734 35.4398C24.5234 35.6877 24.325 35.9827 24.1896 36.3076C24.0543 36.6326 23.9846 36.9811 23.9846 37.3332C23.9846 37.6852 24.0543 38.0337 24.1896 38.3587C24.325 38.6837 24.5234 38.9786 24.7734 39.2265C25.0213 39.4764 25.3162 39.6748 25.6411 39.8102C25.9661 39.9456 26.3147 40.0153 26.6667 40.0153C27.0187 40.0153 27.3673 39.9456 27.6922 39.8102C28.0172 39.6748 28.3121 39.4764 28.56 39.2265L32 35.7598L35.44 39.2265C35.6879 39.4764 35.9829 39.6748 36.3078 39.8102C36.6328 39.9456 36.9813 40.0153 37.3334 40.0153C37.6854 40.0153 38.0339 39.9456 38.3589 39.8102C38.6838 39.6748 38.9788 39.4764 39.2267 39.2265C39.4766 38.9786 39.675 38.6837 39.8104 38.3587C39.9458 38.0337 40.0155 37.6852 40.0155 37.3332C40.0155 36.9811 39.9458 36.6326 39.8104 36.3076C39.675 35.9827 39.4766 35.6877 39.2267 35.4398L35.76 31.9998L39.2267 28.5598C39.4766 28.3119 39.675 28.017 39.8104 27.692C39.9458 27.3671 40.0155 27.0185 40.0155 26.6665C40.0155 26.3145 39.9458 25.9659 39.8104 25.641C39.675 25.316 39.4766 25.0211 39.2267 24.7732Z" fill="#FF3D71"/>
</svg>
