<svg width="64" height="64" viewBox="0 0 64 64" fill="none" xmlns="http://www.w3.org/2000/svg">
<path d="M32 5.33301C26.7258 5.33301 21.5701 6.89698 17.1848 9.82715C12.7995 12.7573 9.38154 16.9221 7.3632 21.7948C5.34487 26.6675 4.81678 32.0293 5.84572 37.2021C6.87466 42.3749 9.41441 47.1265 13.1438 50.8559C16.8732 54.5853 21.6248 57.125 26.7976 58.1539C31.9704 59.1829 37.3322 58.6548 42.2049 56.6365C47.0776 54.6181 51.2423 51.2002 54.1725 46.8149C57.1027 42.4296 58.6667 37.2738 58.6667 31.9997C58.6667 28.4978 57.9769 25.0301 56.6368 21.7948C55.2967 18.5594 53.3324 15.6197 50.8562 13.1435C48.3799 10.6673 45.4402 8.70301 42.2049 7.36289C38.9695 6.02276 35.5019 5.33301 32 5.33301ZM32 53.333C27.7807 53.333 23.6561 52.0818 20.1478 49.7377C16.6396 47.3936 13.9052 44.0617 12.2906 40.1636C10.6759 36.2654 10.2534 31.976 11.0766 27.8377C11.8997 23.6995 13.9315 19.8982 16.915 16.9147C19.8986 13.9312 23.6998 11.8994 27.8381 11.0763C31.9763 10.2531 36.2657 10.6756 40.1639 12.2902C44.0621 13.9049 47.3939 16.6393 49.738 20.1475C52.0821 23.6558 53.3333 27.7803 53.3333 31.9997C53.3333 37.6576 51.0857 43.0838 47.0849 47.0846C43.0842 51.0854 37.6579 53.333 32 53.333Z" fill="#00E096"/>
<path d="M39.2 22.3735L29.12 35.7068L24.7733 30.0801C24.3384 29.5214 23.6993 29.1584 22.9966 29.0709C22.294 28.9833 21.5854 29.1785 21.0267 29.6135C20.4679 30.0484 20.1049 30.6875 20.0174 31.3902C19.9299 32.0928 20.125 32.8014 20.56 33.3601L27.04 41.6535C27.2911 41.9713 27.6113 42.2277 27.9764 42.4033C28.3414 42.5789 28.7416 42.669 29.1467 42.6668C29.5539 42.6658 29.9555 42.5716 30.3207 42.3913C30.6859 42.211 31.0049 41.9495 31.2533 41.6268L43.44 25.6268C43.8714 25.061 44.0604 24.347 43.9654 23.6419C43.8704 22.9367 43.4991 22.2982 42.9333 21.8668C42.3675 21.4354 41.6535 21.2464 40.9484 21.3414C40.2433 21.4364 39.6047 21.8077 39.1733 22.3735H39.2Z" fill="#00E096"/>
</svg>
