<svg width="452" height="451" viewBox="0 0 452 451" fill="none" xmlns="http://www.w3.org/2000/svg">
<path d="M230.642 4.66426C230.642 2.09674 228.568 0.0219727 226 0.0219727C223.433 0.0219727 221.358 2.09674 221.358 4.66426C221.358 7.07618 223.173 9.02126 225.507 9.25467V61.0308H226.467V9.25467C228.827 8.99533 230.642 7.05024 230.642 4.66426Z" fill="#C5CEE0"/>
<path d="M379.347 78.3703C381.162 76.5549 381.162 73.6242 379.347 71.8088C377.531 69.9934 374.601 69.9934 372.785 71.8088C371.1 73.4946 370.996 76.1658 372.474 78.0072L338.8 111.681L339.475 112.355L373.148 78.6815C374.99 80.1597 377.661 80.082 379.347 78.3703Z" fill="#C5CEE0"/>
<path d="M446.517 229.798C449.085 229.798 451.16 227.723 451.16 225.155C451.16 222.588 449.085 220.513 446.517 220.513C444.105 220.513 442.16 222.329 441.927 224.663H390.151V225.622H441.927C442.16 227.982 444.105 229.798 446.517 229.798Z" fill="#C5CEE0"/>
<path d="M372.785 378.502C374.601 380.318 377.531 380.318 379.347 378.502C381.162 376.687 381.162 373.756 379.347 371.941C377.661 370.255 374.99 370.151 373.148 371.63L339.475 337.956L338.8 338.63L372.474 372.304C370.996 374.145 371.074 376.817 372.785 378.502Z" fill="#C5CEE0"/>
<path d="M221.358 445.673C221.358 448.24 223.433 450.315 226 450.315C228.568 450.315 230.642 448.24 230.642 445.673C230.642 443.261 228.827 441.316 226.493 441.082V389.28H225.533V441.056C223.173 441.316 221.358 443.261 221.358 445.673Z" fill="#C5CEE0"/>
<path d="M72.6533 371.941C70.8379 373.756 70.8379 376.687 72.6533 378.502C74.4687 380.318 77.3993 380.318 79.2148 378.502C80.9005 376.817 81.0042 374.145 79.526 372.304L113.2 338.63L112.525 337.956L78.8517 371.63C77.0103 370.151 74.3391 370.229 72.6533 371.941Z" fill="#C5CEE0"/>
<path d="M5.48275 220.513C2.91522 220.513 0.840454 222.588 0.840454 225.156C0.840454 227.723 2.91522 229.798 5.48275 229.798C7.89466 229.798 9.83975 227.982 10.0732 225.648H61.8493V224.689H10.0732C9.83975 222.329 7.89466 220.513 5.48275 220.513Z" fill="#C5CEE0"/>
<path d="M79.2148 71.8088C77.3993 69.9934 74.4687 69.9934 72.6533 71.8088C70.8379 73.6242 70.8379 76.5549 72.6533 78.3703C74.3391 80.056 77.0103 80.1597 78.8517 78.6815L112.525 112.355L113.2 111.681L79.526 78.0072C81.0042 76.1658 80.9264 73.4946 79.2148 71.8088Z" fill="#C5CEE0"/>
</svg>
