<svg width="40" height="40" viewBox="0 0 40 40" fill="none" xmlns="http://www.w3.org/2000/svg">
<path d="M18.5705 0.0498926C13.7958 0.404769 9.44044 2.36812 6.02071 5.7095C1.52253 10.0971 -0.634391 16.3097 0.162931 22.5501C1.15843 30.3528 6.66134 36.8512 14.2198 39.151C20.0637 40.93 26.5667 39.8745 31.5212 36.3488C37.6094 32.0119 40.7757 24.8176 39.8355 17.4527C38.84 9.65002 33.3371 3.15161 25.7786 0.851824C23.5295 0.165112 20.9071 -0.125242 18.5705 0.0498926ZM20.096 12.443C21.1191 12.5444 21.6307 12.7057 21.8612 13.0052C21.9211 13.0882 22.0179 13.291 22.0732 13.4569C22.193 13.8072 22.1976 14.2081 22.1239 17.2038C22.0778 19.075 22.1054 19.6511 22.2575 20.0659C22.4373 20.5406 22.8336 20.7572 23.1839 20.5775C23.5019 20.4116 24.2439 19.5958 24.7278 18.8722C25.8478 17.2131 26.5299 15.9272 27.3502 13.9408C27.5162 13.5491 27.7374 13.291 27.9678 13.2311C28.06 13.2034 29.3643 13.1804 30.9681 13.1758L33.8026 13.1665L34.0422 13.2679C34.351 13.4062 34.4708 13.5859 34.4708 13.9132C34.4708 14.5354 33.821 15.812 32.7057 17.3744C32.5536 17.591 31.9775 18.356 31.429 19.0796C30.2169 20.6743 29.9542 21.0476 29.7699 21.4347C29.5394 21.9233 29.5947 22.3242 29.9588 22.7989C30.0648 22.9326 30.5994 23.4718 31.1479 23.9972C32.6826 25.4674 33.3785 26.2417 33.9454 27.0897C34.351 27.7027 34.5077 28.1544 34.4432 28.5415C34.4109 28.7535 34.1989 29.007 33.9593 29.1314C33.6735 29.2743 33.2357 29.302 30.8253 29.3342L28.5439 29.3665L28.1752 29.242C27.235 28.9286 26.6082 28.4078 25.1841 26.7579C24.396 25.8454 23.8107 25.3983 23.4051 25.3937C23.0318 25.3937 22.5571 25.8914 22.3543 26.509C22.216 26.9238 22.1653 27.2418 22.1239 27.9608C22.0732 28.8088 21.9718 29.007 21.451 29.2236C21.262 29.3066 18.9115 29.3342 18.2893 29.2697C17.0404 29.1314 15.8835 28.7397 14.736 28.0622C13.0722 27.0851 12.0536 26.2094 10.9613 24.8176C9.06252 22.3934 7.76745 20.3286 6.19585 17.2131C5.58749 16.001 4.87312 14.434 4.7579 14.0606C4.64268 13.6735 4.8086 13.3555 5.18652 13.2357C5.31557 13.1942 6.03454 13.1711 7.69371 13.1481L10.0212 13.1251L10.2931 13.2265C10.7217 13.3924 10.9014 13.6044 11.1918 14.3095C11.4407 14.9041 12.7818 17.5956 13.2012 18.3468C13.6298 19.1073 14.0861 19.7433 14.4779 20.1212C14.9618 20.5959 15.1784 20.7111 15.5194 20.6835C15.8098 20.6558 15.8882 20.5913 16.0679 20.1996C16.5057 19.2548 16.5749 16.0609 16.1831 14.8073C15.9573 14.0929 15.6208 13.821 14.6899 13.6228C14.5286 13.5859 14.5286 13.5306 14.676 13.314C15.0355 12.7978 15.6761 12.549 16.8975 12.4476C17.5658 12.3923 19.5475 12.3877 20.096 12.443Z" fill="#5181B8"/>
</svg>
